<?xml version="1.0" encoding="UTF-8"?>
<svg version="1.1" xmlns="http://www.w3.org/2000/svg" width="1024" height="1024">
<path d="M0 0 C0 0.66 0 1.32 0 2 C0.74121094 2.00257813 1.48242188 2.00515625 2.24609375 2.0078125 C12.28241072 2.37634311 20.75465379 5.27914226 30 9 C30.63744141 9.25475098 31.27488281 9.50950195 31.93164062 9.77197266 C36.99750332 11.86036515 40.76224341 14.60088876 45 18 C46.30517578 19.00933594 46.30517578 19.00933594 47.63671875 20.0390625 C67.64177542 35.83105981 79.95516008 57.61735216 83 83 C84.04914363 99.50422651 81.90325727 114.85969685 75 130 C74.72559082 130.60199219 74.45118164 131.20398438 74.16845703 131.82421875 C69.5426568 141.74578033 63.81863325 149.37902883 56 157 C55.1853125 157.81210937 54.370625 158.62421875 53.53125 159.4609375 C38.50209005 173.75815784 17.87030357 183.13975451 -3 184 C-3.88429688 184.03996094 -4.76859375 184.07992187 -5.6796875 184.12109375 C-29.11547435 184.64948682 -51.39223996 177.57353019 -69 162 C-70.20641172 161.03924873 -71.41445882 160.08054292 -72.625 159.125 C-73.40875 158.42375 -74.1925 157.7225 -75 157 C-75 156.34 -75 155.68 -75 155 C-75.66 155 -76.32 155 -77 155 C-93.76662869 135.14697698 -102.4678703 111.43037559 -100.67211914 85.35327148 C-98.35568744 60.2678347 -87.27130207 37.90090099 -67.98095703 21.52319336 C-48.52892402 5.81066966 -24.69941541 0 0 0 Z M-45.90234375 54.6796875 C-54.75471455 64.47169542 -60.13377355 75.79004667 -61 89 C-61.0515625 89.6703125 -61.103125 90.340625 -61.15625 91.03125 C-61.72559701 104.12623124 -57.18747877 116.43332916 -48.6875 126.25 C-42.26820132 133.01944224 -35.7745257 137.77407143 -27 141 C-26.19046875 141.30035156 -25.3809375 141.60070312 -24.546875 141.91015625 C-12.12114385 145.90945595 1.06769886 145.20402295 13 140 C26.66319151 132.97737427 36.2496904 122.34015949 41.375 107.875 C44.57414492 96.52405902 43.91800014 85.10438382 40 74 C39.67 73.01 39.34 72.02 39 71 C31.04852286 56.73343666 20.04667014 46.45786232 4.16015625 41.72265625 C-13.907579 37.5909739 -32.33337658 41.7263722 -45.90234375 54.6796875 Z " fill="#031F40" transform="translate(258,336)"/>
<path d="M0 0 C1.09570312 0.5259375 2.19140625 1.051875 3.3203125 1.59375 C14.75972571 7.43749843 24.91421672 14.84980535 34.375 23.5 C34.94089844 24.01651123 35.50679687 24.53302246 36.08984375 25.06518555 C37.43671388 26.33209581 38.72466216 27.66110712 40 29 C40 29.66 40 30.32 40 31 C40.66 31 41.32 31 42 31 C63.6762904 53.48617378 78.50741655 84.89506753 89.75 113.5625 C90.08539795 114.40022949 90.4207959 115.23795898 90.76635742 116.10107422 C92.72676376 121.3031015 93.33098276 125.44330868 93 131 C87.15799768 134.90497157 81.27597631 134.41092367 74.4375 134.3125 C73.31408203 134.31572266 72.19066406 134.31894531 71.03320312 134.32226562 C61.05814735 134.25706918 61.05814735 134.25706918 57 132 C55.60620117 129.87695312 55.60620117 129.87695312 54.54296875 127.28125 C54.15302734 126.34925781 53.76308594 125.41726563 53.36132812 124.45703125 C52.97396484 123.48121094 52.58660156 122.50539063 52.1875 121.5 C51.78080078 120.52417969 51.37410156 119.54835938 50.95507812 118.54296875 C48 111.36138393 48 111.36138393 48 109 C47.34 108.67 46.68 108.34 46 108 C45.10546875 106.06640625 45.10546875 106.06640625 44.1875 103.5625 C40.74490197 94.08510035 40.74490197 94.08510035 35 86 C34.26083578 84.53599645 33.55741874 83.0537997 32.875 81.5625 C29.96612925 75.6498102 26.57348809 69.78261378 22 65 C20.68 65 19.36 65 18 65 C18.27070313 64.46632813 18.54140625 63.93265625 18.8203125 63.3828125 C19.27679528 60.73362842 19.27679528 60.73362842 16.9296875 58.1171875 C15.92823313 57.02089588 14.9085808 55.9410567 13.875 54.875 C13.32875977 54.30241455 12.78251953 53.7298291 12.21972656 53.13989258 C-1.35692936 39.23601834 -18.01711886 28.26776276 -37.875 27.6875 C-47.14410317 27.83748549 -55.29693764 29.7553618 -63 35 C-63.66 35.99 -64.32 36.98 -65 38 C-65.66 38 -66.32 38 -67 38 C-82.66843925 50.63356138 -86.42677193 70.27548645 -90 89 C-96.25842263 91.2244323 -102.08591286 91.30004362 -108.6875 91.25 C-110.2353418 91.26160156 -110.2353418 91.26160156 -111.81445312 91.2734375 C-112.80767578 91.27085937 -113.80089844 91.26828125 -114.82421875 91.265625 C-115.72229248 91.26336914 -116.62036621 91.26111328 -117.5456543 91.25878906 C-120.15998374 90.98313113 -121.7865557 90.39870642 -124 89 C-128.6235274 78.95183897 -120.70179316 58.59858349 -117.21386719 48.7890625 C-109.12329398 27.62761114 -94.19750816 8.75451733 -74 -2 C-50.38627119 -12.5011641 -23.09920575 -11.10438009 0 0 Z " fill="#031F3F" transform="translate(246,538)"/>
<path d="M0 0 C0.33 0.66 0.66 1.32 1 2 C2.0621875 1.91621094 3.124375 1.83242188 4.21875 1.74609375 C5.64580379 1.64282012 7.07288891 1.53997872 8.5 1.4375 C9.19609375 1.38142578 9.8921875 1.32535156 10.609375 1.26757812 C12.74176633 1.11949539 14.86302888 1.04368138 17 1 C18.04764526 0.9522644 18.04764526 0.9522644 19.11645508 0.90356445 C22.1313319 0.97612165 24.37404529 1.37374807 26.54248047 3.54321289 C28.07756656 5.73394752 29.38997862 7.97319658 30.6875 10.3125 C31.72600821 12.06750607 32.76643378 13.82137871 33.80859375 15.57421875 C34.33565918 16.47833496 34.86272461 17.38245117 35.40576172 18.31396484 C37.8918663 22.5026513 40.56997436 26.55875421 43.25 30.625 C48.27955369 38.3222975 53.24231 46.06078423 58.1875 53.8125 C63.29341787 61.81524228 68.45241124 69.77024397 73.7890625 77.62109375 C76.65406295 81.99958384 79.30788391 86.51313985 82 91 C82 61.63 82 32.26 82 2 C90.2265227 0.62891288 98.66000266 1 107 1 C107 44.23 107 87.46 107 132 C81 132 81 132 76 127.5 C74.94044605 125.36182558 73.94482269 123.19129061 73 121 C71.51715768 118.46945938 69.90512016 116.02496648 68.3125 113.5625 C67.45825623 112.18525321 66.6067766 110.8062888 65.7578125 109.42578125 C62.80230471 104.65603318 59.7520016 99.95024273 56.6875 95.25 C56.14005127 94.41025635 55.59260254 93.5705127 55.02856445 92.70532227 C53.91051811 90.9914631 52.79210815 89.2778411 51.67333984 87.56445312 C48.94300807 83.38012209 46.22201968 79.1897432 43.5 75 C41.355 71.7 39.21 68.4 37 65 C30.565 55.1 30.565 55.1 24 45 C24 73.38 24 101.76 24 131 C20.14564648 131.7708707 17.69290321 132.08733821 13.91796875 131.87890625 C12.98662109 131.83056641 12.05527344 131.78222656 11.09570312 131.73242188 C10.13599609 131.67634766 9.17628906 131.62027344 8.1875 131.5625 C7.20845703 131.51029297 6.22941406 131.45808594 5.22070312 131.40429688 C2.8134391 131.27512661 0.40664362 131.14018357 -2 131 C-2.04669162 114.36269405 -2.08197489 97.72540931 -2.10362434 81.0880537 C-2.11394311 73.36328633 -2.12801487 65.63855963 -2.15087891 57.91381836 C-2.17079445 51.18203988 -2.18371207 44.45029086 -2.18817699 37.71848375 C-2.19078749 34.15304151 -2.19693569 30.58768356 -2.21146011 27.0222683 C-2.22753124 23.04502135 -2.22798087 19.06785734 -2.22705078 15.09057617 C-2.23424133 13.90446747 -2.24143188 12.71835876 -2.24884033 11.49630737 C-2.246091 10.41517166 -2.24334167 9.33403595 -2.24050903 8.22013855 C-2.24235262 7.27898791 -2.24419621 6.33783728 -2.24609566 5.36816692 C-2 3 -2 3 0 0 Z " fill="#042041" transform="translate(390,435)"/>
<path d="M0 0 C14.09993591 0.44832865 24.22836693 3.61694858 34.5 13.375 C34.995 13.91125 35.49 14.4475 36 15 C36.721875 14.2575 37.44375 13.515 38.1875 12.75 C45.90791345 5.2011513 54.14211464 0.94765403 65.0625 0.75 C76.30938537 0.9162846 84.23013975 4.09394306 93 11 C93.99 11.66 94.98 12.32 96 13 C97.31640625 15.65234375 97.31640625 15.65234375 98.5625 18.9375 C98.97628906 19.99839844 99.39007812 21.05929687 99.81640625 22.15234375 C103.04371789 31.90156362 103.27649099 41.67475991 103.1953125 51.85546875 C103.19157238 53.25222061 103.18873015 54.64897514 103.18673706 56.04573059 C103.17917908 59.68380249 103.15960016 63.3217092 103.1373291 66.9597168 C103.11669966 70.68731453 103.10769916 74.4149395 103.09765625 78.14257812 C103.076345 85.42846867 103.04122906 92.71418995 103 100 C94.75 99.67 86.5 99.34 78 99 C78.02320313 95.00132812 78.04640625 91.00265625 78.0703125 86.8828125 C78.08319881 83.66931278 78.09403578 80.45582049 78.10350037 77.24230957 C78.11400669 73.86395983 78.12801713 70.48571251 78.15087891 67.10742188 C78.1752828 63.22002492 78.18651883 59.33277239 78.1953125 55.4453125 C78.20563507 54.25011993 78.21595764 53.05492737 78.22659302 51.82351685 C78.45625402 39.48008561 78.45625402 39.48008561 73.625 28.5 C68.49210026 23.61152405 64.21646572 23.50018152 57.2734375 23.625 C52.54224184 24.16699855 49.33707146 25.59429982 46 29 C41.20703089 37.34904296 41.86181524 46.59863337 41.90234375 55.93359375 C41.9037587 57.16666763 41.90517365 58.39974152 41.90663147 59.67018127 C41.91221059 63.59264595 41.92475932 67.51505269 41.9375 71.4375 C41.94308302 74.10351479 41.94708013 76.76952904 41.95117188 79.43554688 C41.96217319 85.95705088 41.97889055 92.4785213 42 99 C38.99885664 99.79462257 36.38095218 100.12848292 33.26953125 100.1328125 C31.94211914 100.13474609 31.94211914 100.13474609 30.58789062 100.13671875 C29.67201172 100.13285156 28.75613281 100.12898437 27.8125 100.125 C26.88501953 100.12886719 25.95753906 100.13273438 25.00195312 100.13671875 C24.12087891 100.13542969 23.23980469 100.13414062 22.33203125 100.1328125 C21.52483643 100.13168457 20.7176416 100.13055664 19.88598633 100.12939453 C18 100 18 100 17 99 C16.89207665 97.03782558 16.85371653 95.07179638 16.84228516 93.10668945 C16.83202301 91.84480301 16.82176086 90.58291656 16.81118774 89.28279114 C16.80774982 88.60376047 16.8043119 87.9247298 16.80076981 87.22512245 C16.78899989 85.10198693 16.76954951 82.9790566 16.74765015 80.85600281 C16.68598983 74.81789024 16.63209025 68.77979479 16.59863281 62.74145508 C16.57763056 59.05076847 16.54227578 55.36044935 16.49787521 51.66997337 C16.4837502 50.2654778 16.47500069 48.86091714 16.47182083 47.45635414 C16.46688625 45.48425047 16.44207289 43.51222729 16.41650391 41.5402832 C16.40841705 40.41966995 16.4003302 39.2990567 16.39199829 38.14448547 C15.77943392 33.23068911 14.09959019 29.9923131 10.4375 26.6875 C4.99625749 22.92048595 -0.54425721 23.47901023 -7 24 C-11.64377693 25.14095928 -14.88646055 27.16109988 -17.4375 31.25 C-21.94886384 42.60628513 -20.15950621 57.8448118 -20.13037109 69.91235352 C-20.12494282 72.59071342 -20.13038982 75.26891032 -20.13671875 77.94726562 C-20.13605892 79.67447953 -20.13477975 81.40169334 -20.1328125 83.12890625 C-20.13483673 83.91753555 -20.13686096 84.70616486 -20.13894653 85.51869202 C-20.11960019 90.11357116 -19.75679618 94.46636253 -19 99 C-19.66 99 -20.32 99 -21 99 C-21.33 99.66 -21.66 100.32 -22 101 C-23.32 101 -24.64 101 -26 101 C-26 100.34 -26 99.68 -26 99 C-26.79664063 99.08378906 -27.59328125 99.16757812 -28.4140625 99.25390625 C-38.93848858 100.26537786 -38.93848858 100.26537786 -44 99 C-44.495 99.99 -44.495 99.99 -45 101 C-45 68.66 -45 36.32 -45 3 C-24 3 -24 3 -21 4 C-20.67 6.64 -20.34 9.28 -20 12 C-19.030625 11.0925 -18.06125 10.185 -17.0625 9.25 C-12.01171418 4.91782192 -6.71989546 2 0 2 C0 1.34 0 0.68 0 0 Z " fill="#042040" transform="translate(658,467)"/>
<path d="M0 0 C2.43644066 1.70236241 4.79799449 3.47451971 7.16015625 5.27734375 C8.15015625 5.77234375 8.15015625 5.77234375 9.16015625 6.27734375 C9.49015625 3.30734375 9.82015625 0.33734375 10.16015625 -2.72265625 C13.80597312 -2.75153137 17.45176088 -2.7694121 21.09765625 -2.78515625 C22.13857422 -2.79353516 23.17949219 -2.80191406 24.25195312 -2.81054688 C25.24130859 -2.81376953 26.23066406 -2.81699219 27.25 -2.8203125 C28.62466431 -2.82816772 28.62466431 -2.82816772 30.02709961 -2.83618164 C32.16015625 -2.72265625 32.16015625 -2.72265625 33.16015625 -1.72265625 C33.27287941 -0.03433593 33.31590215 1.65867329 33.33183289 3.35067749 C33.34451202 4.44997086 33.35719116 5.54926422 33.37025452 6.68186951 C33.37915207 7.89850784 33.38804962 9.11514618 33.3972168 10.36865234 C33.41032898 11.64169724 33.42344116 12.91474213 33.43695068 14.22636414 C33.47264079 17.72842793 33.50183158 21.2305175 33.52934241 24.73265409 C33.54681969 26.91886318 33.56569946 29.10505544 33.58509254 31.29124832 C33.6526945 38.91320627 33.71510611 46.53518661 33.77270508 54.15722656 C33.82658713 61.26968464 33.89168352 68.38198017 33.96204346 75.49429262 C34.02189354 81.59362082 34.07396932 87.69298317 34.11997062 93.79243147 C34.14759862 97.43836912 34.17839609 101.08421341 34.2169857 104.73005295 C34.25969682 108.79575174 34.28626019 112.86139997 34.3112793 116.92724609 C34.33373466 118.74613091 34.33373466 118.74613091 34.35664368 120.60176086 C34.36086334 121.70669388 34.36508301 122.81162689 34.36943054 123.95004272 C34.37734965 124.91201757 34.38526876 125.87399242 34.39342785 126.86511803 C34.16015625 129.27734375 34.16015625 129.27734375 32.16015625 132.27734375 C27.4405154 133.95442001 22.25911436 133.15848421 17.34765625 132.83984375 C16.46400391 132.78763672 15.58035156 132.73542969 14.66992188 132.68164062 C12.49965217 132.55259756 10.32984932 132.41574419 8.16015625 132.27734375 C7.94309215 119.92880827 8.59323628 107.60936083 9.16015625 95.27734375 C7.67515625 94.78234375 7.67515625 94.78234375 6.16015625 94.27734375 C7.15015625 94.27734375 8.14015625 94.27734375 9.16015625 94.27734375 C8.66515625 90.31734375 8.66515625 90.31734375 8.16015625 86.27734375 C7.38929688 86.78265625 6.6184375 87.28796875 5.82421875 87.80859375 C4.82132813 88.45828125 3.8184375 89.10796875 2.78515625 89.77734375 C1.78742188 90.42703125 0.7896875 91.07671875 -0.23828125 91.74609375 C-2.83984375 93.27734375 -2.83984375 93.27734375 -4.83984375 93.27734375 C-5.16984375 93.93734375 -5.49984375 94.59734375 -5.83984375 95.27734375 C-18.06583507 98.05597814 -30.96302085 96.82322226 -41.87890625 90.5234375 C-44.32773155 88.87134269 -46.66185374 87.27342489 -48.83984375 85.27734375 C-48.83984375 84.61734375 -48.83984375 83.95734375 -48.83984375 83.27734375 C-49.73703125 82.91382813 -49.73703125 82.91382813 -50.65234375 82.54296875 C-56.5218022 79.14706779 -59.15436013 71.09514786 -61.21484375 64.96484375 C-65.59658213 48.20790282 -63.55952244 31.25974904 -55.48046875 16.0625 C-49.52969563 5.96035421 -40.29807626 -0.2067241 -29.26171875 -3.9296875 C-19.44433216 -6.20472115 -8.70145295 -5.2783229 0 0 Z M-29.15234375 21.46484375 C-35.94595145 28.57443321 -38.47215687 35.48627534 -39.08984375 45.21484375 C-38.7828913 54.29702507 -36.79869237 62.14885031 -30.35546875 68.8125 C-24.40805844 74.07013334 -18.90695812 74.80147617 -11.19921875 74.64453125 C-5.02862281 73.97007076 -0.31970917 71.85178031 4.00390625 67.36328125 C9.86547768 59.4616531 11.74622387 50.70221512 10.59765625 41.02734375 C8.88136636 31.62910575 5.59818531 25.37686644 -1.83984375 19.27734375 C-10.63473407 14.18556514 -21.02503839 16.09775531 -29.15234375 21.46484375 Z M8.16015625 83.27734375 C8.16015625 86.27734375 8.16015625 86.27734375 8.16015625 86.27734375 Z " fill="#052040" transform="translate(877.83984375,472.72265625)"/>
<path d="M0 0 C10.59128511 10.88548747 11.70753711 24.38111948 11.54296875 38.82421875 C11.53735947 40.28822897 11.53309568 41.7522449 11.53010559 43.21626282 C11.51876143 47.03197329 11.48938706 50.84733014 11.45599365 54.66290283 C11.42506503 58.57144388 11.41155203 62.4800432 11.39648438 66.38867188 C11.36450487 74.0301075 11.3134385 81.67125382 11.25 89.3125 C8.46955867 90.04448312 6.09026122 90.4242309 3.2109375 90.375 C2.46585938 90.36726562 1.72078125 90.35953125 0.953125 90.3515625 C0.18484375 90.33867188 -0.5834375 90.32578125 -1.375 90.3125 C-6.72019614 89.97111955 -6.72019614 89.97111955 -11.75 91.3125 C-12.41 88.3425 -13.07 85.3725 -13.75 82.3125 C-15.3896875 83.67375 -15.3896875 83.67375 -17.0625 85.0625 C-26.16915587 91.7928131 -35.56707846 93.5258595 -46.75 92.3125 C-54.88822924 90.65543887 -62.04628959 87.47110756 -67.75 81.3125 C-72.64954327 73.79281728 -75.08938046 65.86175407 -73.25390625 56.88671875 C-71.07632754 48.77923642 -68.16984687 43.597845 -61 39.0625 C-49.61593342 32.71922367 -38.60992101 32.15935641 -25.8125 31.75 C-24.55630859 31.70681641 -23.30011719 31.66363281 -22.00585938 31.61914062 C-18.92067032 31.51356381 -15.83540737 31.41145449 -12.75 31.3125 C-13.02495626 29.5517623 -13.31256679 27.79299772 -13.60546875 26.03515625 C-13.84366333 24.56574585 -13.84366333 24.56574585 -14.08666992 23.06665039 C-15.25428813 18.21869269 -17.69982142 15.60118368 -21.9375 12.9375 C-29.04458293 11.35814824 -35.41678 11.6392324 -41.75 15.3125 C-44.95804621 18.6096586 -46.73591432 22.21078058 -48.75 26.3125 C-51.87594352 25.67117797 -55.00057522 25.02367727 -58.125 24.375 C-59.45917969 24.10139648 -59.45917969 24.10139648 -60.8203125 23.82226562 C-61.67109375 23.64501953 -62.521875 23.46777344 -63.3984375 23.28515625 C-64.18395996 23.12281494 -64.96948242 22.96047363 -65.77880859 22.79321289 C-67.75 22.3125 -67.75 22.3125 -69.75 21.3125 C-69.18189427 13.92712545 -64.9431855 6.5056855 -59.75 1.3125 C-40.7796945 -11.90922807 -19.45514658 -11.9383854 0 0 Z M-45.75 53.3125 C-48.14561797 57.16000764 -48.76413907 59.47829482 -48.6875 64 C-47.58982491 67.87845199 -47.14500702 69.12999549 -43.75 71.3125 C-36.90716195 73.46693351 -30.48312403 74.00574961 -23.75 71.3125 C-18.35531005 68.41574042 -14.88891749 65.03986633 -13.0625 59.0625 C-12.617032 55.14238162 -12.67273361 51.25308608 -12.75 47.3125 C-13.41 47.6425 -14.07 47.9725 -14.75 48.3125 C-14.75 47.9825 -14.75 47.6525 -14.75 47.3125 C-24.80650406 47.12215607 -37.42730325 47.1537044 -45.75 53.3125 Z " fill="#052041" transform="translate(584.75,476.6875)"/>
<path d="M0 0 C1.06669922 -0.01224609 2.13339844 -0.02449219 3.23242188 -0.03710938 C4.25013672 -0.03904297 5.26785156 -0.04097656 6.31640625 -0.04296875 C7.2504126 -0.04707764 8.18441895 -0.05118652 9.14672852 -0.05541992 C11.4375 0.1875 11.4375 0.1875 13.4375 2.1875 C13.41749573 4.04244328 13.41749573 4.04244328 13.06860352 6.26295471 C12.44459162 10.87181723 12.30823711 15.33487984 12.33984375 19.98022461 C12.34203415 21.22095734 12.34203415 21.22095734 12.3442688 22.48675537 C12.34804537 24.26437425 12.35413016 26.04198948 12.36233521 27.81959343 C12.37518854 30.6310845 12.38163621 33.44252798 12.38647461 36.25404358 C12.3978473 42.21105063 12.41712318 48.16801785 12.4375 54.125 C12.46109622 61.05423758 12.48145829 67.98345342 12.49343872 74.91272163 C12.49993222 77.6858987 12.51243344 80.45900794 12.52514648 83.23216248 C12.52877676 84.92162008 12.53212877 86.61107832 12.53515625 88.30053711 C12.54032257 89.07401993 12.54548889 89.84750275 12.55081177 90.64442444 C12.55134331 95.95981337 12.55134331 95.95981337 11.4375 98.1875 C10.7775 98.1875 10.1175 98.1875 9.4375 98.1875 C9.4375 97.5275 9.4375 96.8675 9.4375 96.1875 C8.31730469 96.27128906 7.19710937 96.35507812 6.04296875 96.44140625 C4.57033444 96.54458445 3.09767692 96.64743179 1.625 96.75 C0.51801758 96.83411133 0.51801758 96.83411133 -0.61132812 96.91992188 C-3.93038516 97.14519724 -6.37482564 97.25005812 -9.5625 96.1875 C-10.0575 97.1775 -10.0575 97.1775 -10.5625 98.1875 C-12.04121399 97.20219421 -12.04121399 97.20219421 -13.5625 95.1875 C-13.84308662 92.36761808 -13.94139811 89.77125564 -13.90307617 86.95239258 C-13.90351425 86.11314743 -13.90395233 85.27390228 -13.90440369 84.40922546 C-13.90231247 81.63325799 -13.87896586 78.85789331 -13.85546875 76.08203125 C-13.84987398 74.15818105 -13.84560332 72.23432658 -13.84260559 70.31047058 C-13.83114747 65.2452516 -13.80167193 60.18029042 -13.76849365 55.11517334 C-13.73781363 49.94726041 -13.72410468 44.77930586 -13.70898438 39.61132812 C-13.6768032 29.46993878 -13.62559512 19.32874082 -13.5625 9.1875 C-13.8925 9.1875 -14.2225 9.1875 -14.5625 9.1875 C-14.5625 6.5475 -14.5625 3.9075 -14.5625 1.1875 C-9.80825148 -0.39724951 -4.97853315 0.00301912 0 0 Z " fill="#051F3F" transform="translate(790.5625,469.8125)"/>
<path d="M0 0 C0.33 0.66 0.66 1.32 1 2 C2.0621875 1.91621094 3.124375 1.83242188 4.21875 1.74609375 C19.28361578 0.62806779 19.28361578 0.62806779 25 2 C27 5 27 5 26.625 7.1875 C26.315625 8.0846875 26.315625 8.0846875 26 9 C25.01 7.68 24.02 6.36 23 5 C15.74 4.67 8.48 4.34 1 4 C1 45.25 1 86.5 1 129 C7.6 129 14.2 129 21 129 C20.98952637 126.47633789 20.97905273 123.95267578 20.96826172 121.35253906 C20.93513653 113.0185527 20.91303612 104.68456345 20.89637566 96.35052872 C20.88593415 91.29712698 20.87176819 86.24379264 20.84912109 81.19042969 C20.82740589 76.31454556 20.81543414 71.4387263 20.81024551 66.56279755 C20.80654739 64.70164722 20.79932597 62.84050049 20.78853989 60.97937775 C20.77404259 58.37451986 20.77202132 55.76993074 20.77294922 53.16503906 C20.76216339 52.00841766 20.76216339 52.00841766 20.75115967 50.82843018 C20.76568618 47.06494527 20.88782165 44.19177395 23 41 C26.6739084 42.22463613 27.14932173 43.71636115 28.91601562 47.00830078 C30.68636984 50.26112728 32.73330202 53.33362445 34.75 56.4375 C35.16121094 57.07365234 35.57242188 57.70980469 35.99609375 58.36523438 C36.99575334 59.91121955 37.99763927 61.45576477 39 63 C38.34 63.66 37.68 64.32 37 65 C30.565 55.1 30.565 55.1 24 45 C24 73.38 24 101.76 24 131 C20.14564648 131.7708707 17.69290321 132.08733821 13.91796875 131.87890625 C12.98662109 131.83056641 12.05527344 131.78222656 11.09570312 131.73242188 C10.13599609 131.67634766 9.17628906 131.62027344 8.1875 131.5625 C7.20845703 131.51029297 6.22941406 131.45808594 5.22070312 131.40429688 C2.8134391 131.27512661 0.40664362 131.14018357 -2 131 C-2.04669162 114.36269405 -2.08197489 97.72540931 -2.10362434 81.0880537 C-2.11394311 73.36328633 -2.12801487 65.63855963 -2.15087891 57.91381836 C-2.17079445 51.18203988 -2.18371207 44.45029086 -2.18817699 37.71848375 C-2.19078749 34.15304151 -2.19693569 30.58768356 -2.21146011 27.0222683 C-2.22753124 23.04502135 -2.22798087 19.06785734 -2.22705078 15.09057617 C-2.23424133 13.90446747 -2.24143188 12.71835876 -2.24884033 11.49630737 C-2.246091 10.41517166 -2.24334167 9.33403595 -2.24050903 8.22013855 C-2.24235262 7.27898791 -2.24419621 6.33783728 -2.24609566 5.36816692 C-2 3 -2 3 0 0 Z " fill="#0E1A2E" transform="translate(390,435)"/>
<path d="M0 0 C4.45383796 2.96922531 6.30519259 6.16283748 7.8125 11.25 C7.8125 16.00797557 6.7607591 19.13297883 3.8125 22.875 C-0.14203903 26.13482271 -3.85653688 27.19364258 -8.9375 26.75 C-12.03050105 26.29383797 -14.5080047 25.50502631 -17.1875 23.875 C-20.93465699 18.67061529 -21.99823912 15.25957059 -21.1875 8.875 C-16.605884 0.20265544 -9.59399216 -3.38611488 0 0 Z " fill="#062140" transform="translate(797.1875,435.125)"/>
<path d="M0 0 C0 43.23 0 86.46 0 131 C-3.96 130.67 -7.92 130.34 -12 130 C-11.01 129.01 -11.01 129.01 -10 128 C-7.36 128 -4.72 128 -2 128 C-2 86.75 -2 45.5 -2 3 C-8.6 3 -15.2 3 -22 3 C-22 26.1 -22 49.2 -22 73 C-22.66 73 -23.32 73 -24 73 C-25.12048646 69.40492528 -25.12047214 66.05495605 -25.11352539 62.30371094 C-25.11367142 61.63988403 -25.11381744 60.97605713 -25.1139679 60.29211426 C-25.11327332 58.1061675 -25.10550231 55.92030681 -25.09765625 53.734375 C-25.09579045 52.21551561 -25.09436731 50.69665562 -25.09336853 49.17779541 C-25.0895561 45.18622161 -25.0797367 41.19468438 -25.06866455 37.203125 C-25.05842303 33.1276092 -25.05386504 29.05208747 -25.04882812 24.9765625 C-25.03811327 16.98435825 -25.02105216 8.99218368 -25 1 C-16.90901413 -1.02274647 -8.33999734 0 0 0 Z " fill="#091527" transform="translate(497,436)"/>
<path d="M0 0 C21 0 21 0 23 1 C23 4.63 23 8.26 23 12 C22.34 12 21.68 12 21 12 C21 9.03 21 6.06 21 3 C15.06 3 9.12 3 3 3 C3.01571045 5.73571289 3.0314209 8.47142578 3.04760742 11.29003906 C3.09728671 20.32250101 3.13044236 29.35496896 3.15543652 38.38753128 C3.17110141 43.86471017 3.19235486 49.34174924 3.22631836 54.81884766 C3.25888221 60.10322191 3.27684681 65.38746157 3.28463173 70.67192841 C3.29018057 72.68939076 3.30101593 74.70684564 3.31719017 76.72425079 C3.33892478 79.54712422 3.34196857 82.36943936 3.34057617 85.19238281 C3.351362 86.02891891 3.36214783 86.86545502 3.3732605 87.7273407 C3.3472289 92.59524985 3.0553339 93.92622147 0 98 C0 65.66 0 33.32 0 0 Z " fill="#142C48" transform="translate(613,470)"/>
<path d="M0 0 C5.54806985 -0.87601103 9.08087742 1.26668999 13.6015625 4.171875 C21.42645226 10.13612322 25.41496145 19.4637137 27 29 C27.08543958 31.20741149 27.11774922 33.41716036 27.11352539 35.6262207 C27.11367142 36.27068649 27.11381744 36.91515228 27.1139679 37.57914734 C27.11327506 39.69472704 27.10551231 41.81021706 27.09765625 43.92578125 C27.09578983 45.39837089 27.09436699 46.87096115 27.09336853 48.34355164 C27.08956096 52.20852388 27.07974579 56.0734582 27.06866455 59.93841553 C27.0584125 63.88667284 27.05386279 67.83493632 27.04882812 71.78320312 C27.03812187 79.52215265 27.02106669 87.261071 27 95 C23.66558984 95.93818736 21.63131949 95.90782987 18.25 95.0625 C17.45078125 94.86785156 16.6515625 94.67320312 15.828125 94.47265625 C14.92320312 94.23869141 14.92320312 94.23869141 14 94 C14 93.67 14 93.34 14 93 C17.63 93 21.26 93 25 93 C24.93840719 84.99282863 24.86103334 76.98602234 24.76428509 68.97920609 C24.71982543 65.26008581 24.68051808 61.54106895 24.65356445 57.82177734 C24.62728468 54.22296395 24.58671525 50.62455391 24.53681374 47.02599335 C24.51235554 45.00572419 24.50216466 42.98529818 24.49235535 40.96490479 C24.31265427 29.52236641 23.24425557 17.67364388 15 9 C10.33508914 5.52374431 5.41801667 3.0764235 0 1 C0 0.67 0 0.34 0 0 Z " fill="#0F1B2D" transform="translate(569,471)"/>
<path d="M0 0 C2.76816504 2.76816504 2.94739615 4.82638875 3.12025452 8.68292236 C3.11803391 9.70440369 3.11581329 10.72588501 3.11352539 11.77832031 C3.11344986 12.9392218 3.11337433 14.10012329 3.11329651 15.29620361 C3.10813522 16.54423767 3.10297394 17.79227173 3.09765625 19.078125 C3.09553383 21.00069122 3.09553383 21.00069122 3.09336853 22.96209717 C3.08955901 26.3618364 3.07974214 29.7615326 3.06866455 33.16125488 C3.05841674 36.633539 3.0538637 40.1058301 3.04882812 43.578125 C3.03811841 50.38543608 3.02053433 57.19271154 3 64 C8.94 64 14.88 64 21 64 C21 64.66 21 65.32 21 66 C18.06281233 66.19461488 15.12550068 66.38097593 12.1875 66.5625 C11.35412109 66.61857422 10.52074219 66.67464844 9.66210938 66.73242188 C8.85966797 66.78076172 8.05722656 66.82910156 7.23046875 66.87890625 C6.12288208 66.94960327 6.12288208 66.94960327 4.99291992 67.02172852 C3 67 3 67 0 66 C0 44.22 0 22.44 0 0 Z " fill="#0F1E33" transform="translate(675,500)"/>
<path d="M0 0 C4.22845715 1.40948572 5.39323253 4.46700298 7.5625 8.125 C8.46289687 9.60535257 9.36528669 11.08449457 10.26953125 12.5625 C10.95523193 13.68591797 10.95523193 13.68591797 11.65478516 14.83203125 C13.609687 17.98258086 15.6716207 21.05506502 17.75 24.125 C21.94493457 30.34713565 25.98582471 36.6599548 30 43 C36.25132606 52.86989187 42.57116004 62.69683869 49.2890625 72.2578125 C51 75 51 75 50.75 77.375 C50.5025 77.91125 50.255 78.4475 50 79 C47 75.25 47 75.25 47 73 C46.34 73 45.68 73 45 73 C44.4328125 71.82050781 43.865625 70.64101563 43.28125 69.42578125 C41.29433981 65.45631813 39.01867886 61.83506573 36.5 58.1875 C32.6585189 52.52531318 28.94498686 46.79838144 25.3125 41 C19.40053389 31.57829147 13.338184 22.25778093 7.25 12.94921875 C6.68667969 12.08731934 6.12335938 11.22541992 5.54296875 10.33740234 C4.23812464 8.36072869 2.90625125 6.40723865 1.5625 4.45703125 C0 2 0 2 0 0 Z " fill="#0B172A" transform="translate(419,447)"/>
<path d="M0 0 C0.33 0 0.66 0 1 0 C1.96952297 8.56448813 2.14616816 17.03877362 2.1328125 25.65234375 C2.13348846 27.04277056 2.1344609 28.43319725 2.13571167 29.82362366 C2.13717542 32.72056212 2.13507738 35.61746949 2.13037109 38.5144043 C2.12468001 42.19318341 2.12795738 45.87188943 2.13394356 49.55066586 C2.13758974 52.41716544 2.13639204 55.28364825 2.13381577 58.15014839 C2.13284157 60.15502597 2.13583307 62.15990426 2.13894653 64.16477966 C2.09606028 81.10231327 2.09606028 81.10231327 1 87 C0.01 87.495 0.01 87.495 -1 88 C-1.02312255 76.6738837 -1.04091464 65.34777297 -1.05181217 54.02163792 C-1.05704119 48.76303336 -1.06413918 43.5044449 -1.07543945 38.24584961 C-1.08626766 33.17546873 -1.09227669 28.10510338 -1.09487724 23.03471184 C-1.09673161 21.09573052 -1.10035245 19.15675009 -1.10573006 17.21777534 C-1.1129396 14.5117824 -1.11399098 11.80585444 -1.11352539 9.09985352 C-1.11712067 8.28993454 -1.12071594 7.48001556 -1.12442017 6.64555359 C-1.11405216 1.11405216 -1.11405216 1.11405216 0 0 Z " fill="#020914" transform="translate(801,473)"/>
<path d="M0 0 C9.10704208 0.9340556 16.05529096 5.36134836 23 11 C23.86753906 11.67160156 24.73507812 12.34320313 25.62890625 13.03515625 C38.45991952 23.15363264 49.86217357 36.15836852 55 52 C55.25 55.0625 55.25 55.0625 55 57 C52.27544394 54.27544394 50.96091454 50.99417433 49.3125 47.5625 C38.40768604 25.43876199 22.8679404 11.28031143 0 2 C0 1.34 0 0.68 0 0 Z " fill="#0F1B2D" transform="translate(280,343)"/>
<path d="M0 0 C0.66 0.33 1.32 0.66 2 1 C2 18.16 2 35.32 2 53 C7.61 53 13.22 53 19 53 C14.39979727 56.45015204 12.11765168 56.22331682 6.75 55.6875 C6.00492188 55.62626953 5.25984375 55.56503906 4.4921875 55.50195312 C2.66017845 55.3492857 0.82985684 55.17660246 -1 55 C-1.02545887 48.45297073 -1.0429125 41.90595435 -1.05493164 35.35888672 C-1.05994495 33.13394697 -1.06675728 30.90901049 -1.07543945 28.68408203 C-1.08763687 25.47687979 -1.09325847 22.2697213 -1.09765625 19.0625 C-1.10281754 18.07572266 -1.10797882 17.08894531 -1.11329651 16.07226562 C-1.11373464 10.61750194 -0.80556782 5.39646817 0 0 Z " fill="#08162A" transform="translate(737,511)"/>
<path d="M0 0 C0.515625 0.2475 1.03125 0.495 1.5625 0.75 C0.65628906 1.31847656 -0.24992187 1.88695312 -1.18359375 2.47265625 C-13.20365627 9.46942537 -13.20365627 9.46942537 -23.05078125 18.94921875 C-23.50839844 19.54347656 -23.96601563 20.13773437 -24.4375 20.75 C-25.0975 20.75 -25.7575 20.75 -26.4375 20.75 C-26.79908203 21.55050781 -26.79908203 21.55050781 -27.16796875 22.3671875 C-28.78351235 25.39943857 -30.74833569 28.08276239 -32.75 30.875 C-36.55590387 36.25681582 -39.73036763 41.72356965 -42.4375 47.75 C-43.13671875 46.1796875 -43.13671875 46.1796875 -43.4375 43.75 C-42.48741213 41.2948523 -41.50643332 39.16659313 -40.25 36.875 C-39.8905127 36.21661133 -39.53102539 35.55822266 -39.16064453 34.87988281 C-33.0742159 24.19737117 -14.21403852 -1.4578501 0 0 Z " fill="#101B2D" transform="translate(208.4375,347.25)"/>
<path d="M0 0 C0.66 0 1.32 0 2 0 C2 20.79 2 41.58 2 63 C-0.31 62.67 -2.62 62.34 -5 62 C-4.34 61.34 -3.68 60.68 -3 60 C-2.01 60 -1.02 60 0 60 C0 40.2 0 20.4 0 0 Z " fill="#152132" transform="translate(759,504)"/>
<path d="M0 0 C0.33 0 0.66 0 1 0 C1.95733559 21.01300706 2.12054257 41.96995847 2 63 C1.01 63 0.02 63 -1 63 C-1.02314476 55.08113286 -1.040926 47.1622798 -1.05181217 39.24338722 C-1.05703632 35.56654289 -1.0641255 31.88972166 -1.07543945 28.21289062 C-1.08628493 24.6662104 -1.09228037 21.11955243 -1.09487724 17.5728569 C-1.09672849 16.21803817 -1.10034338 14.86322069 -1.10573006 13.50841141 C-1.11296238 11.61450635 -1.11340824 9.72057902 -1.11352539 7.82666016 C-1.115746 6.74744293 -1.11796661 5.66822571 -1.12025452 4.55630493 C-1 2 -1 2 0 0 Z " fill="#020A18" transform="translate(698,503)"/>
<path d="M0 0 C3.38694793 1.39248191 4.78773972 2.74640811 6.59375 5.91015625 C7.29516113 7.13025391 7.29516113 7.13025391 8.01074219 8.375 C8.50219727 9.261875 8.99365234 10.14875 9.5 11.0625 C10.0146582 11.97902344 10.52931641 12.89554688 11.05957031 13.83984375 C15.17778752 21.28306613 19.02367329 28.85396772 22.75 36.5 C23.53793945 38.10113647 23.53793945 38.10113647 24.34179688 39.73461914 C24.82197266 40.74000732 25.30214844 41.74539551 25.796875 42.78125 C26.22323242 43.66876953 26.64958984 44.55628906 27.08886719 45.47070312 C28.05543934 48.15389914 28.1791673 50.17144392 28 53 C24.8106779 51.40533895 24.18037992 48.09559434 22.875 44.9375 C17.26475532 31.79345613 10.77072553 19.33711397 3.50488281 7.0300293 C3.04952148 6.25828369 2.59416016 5.48653809 2.125 4.69140625 C1.71507812 4.00248291 1.30515625 3.31355957 0.8828125 2.60375977 C0 1 0 1 0 0 Z " fill="#0C182A" transform="translate(303,592)"/>
<path d="M0 0 C0.33 0.66 0.66 1.32 1 2 C2.0621875 1.91621094 3.124375 1.83242188 4.21875 1.74609375 C19.28361578 0.62806779 19.28361578 0.62806779 25 2 C27 5 27 5 26.625 7.1875 C26.315625 8.0846875 26.315625 8.0846875 26 9 C25.61030029 8.35256836 25.22060059 7.70513672 24.8190918 7.03808594 C23.17474993 4.80139584 23.17474993 4.80139584 20.63989258 4.45410156 C19.73392334 4.4331543 18.8279541 4.41220703 17.89453125 4.390625 C17.00870361 4.36000977 16.12287598 4.32939453 15.21020508 4.29785156 C14.0889624 4.28206055 12.96771973 4.26626953 11.8125 4.25 C8.244375 4.1675 4.67625 4.085 1 4 C1 12.25 1 20.5 1 29 C0.67 29 0.34 29 0 29 C0 24.71 0 20.42 0 16 C-0.66 15.67 -1.32 15.34 -2 15 C-2.05406122 13.06280622 -2.09282025 11.12518079 -2.125 9.1875 C-2.14820313 8.10855469 -2.17140625 7.02960938 -2.1953125 5.91796875 C-2 3 -2 3 0 0 Z " fill="#0B1629" transform="translate(390,435)"/>
<path d="M0 0 C-1.97497789 0.99848548 -3.95054699 1.97748561 -5.96484375 2.89453125 C-12.73252182 6.04384679 -16.88619509 9.96683621 -20.17089844 16.68652344 C-21.62879796 20.75456108 -21.42050304 24.73086619 -21.25 29 C-21.23195313 29.87011719 -21.21390625 30.74023438 -21.1953125 31.63671875 C-21.14868436 33.75829907 -21.07696077 35.87930335 -21 38 C-21.66 38 -22.32 38 -23 38 C-25.73757855 28.24737643 -25.51199874 20.25242016 -21.0390625 11.015625 C-16.50991544 3.75614106 -8.58292178 -1.11951154 0 0 Z " fill="#0A1528" transform="translate(536,513)"/>
<path d="M0 0 C7.62378473 3.82638625 14.81812472 8.04608976 21 14 C21 14.66 21 15.32 21 16 C21.55171875 16.21398437 22.1034375 16.42796875 22.671875 16.6484375 C25.78119236 18.453511 27.91272137 20.94800064 30.25 23.625 C30.70890625 24.140625 31.1678125 24.65625 31.640625 25.1875 C32.76592296 26.4534602 33.88372177 27.72607942 35 29 C34.505 30.485 34.505 30.485 34 32 C30.43239999 28.52999391 27.0153132 25.05189544 23.875 21.1875 C20.75012608 17.5606667 17.2771569 14.66001285 13.5 11.75 C12.96616699 11.3377417 12.43233398 10.9254834 11.88232422 10.50073242 C8.09025336 7.64945133 4.15579723 5.28778737 0 3 C0 2.01 0 1.02 0 0 Z " fill="#0F1C30" transform="translate(233,569)"/>
<path d="M0 0 C8.28715752 7.82354032 13.65681427 18.09748022 19 28.0625 C19.38575195 28.77631836 19.77150391 29.49013672 20.16894531 30.22558594 C22.04579382 33.80126209 23.49294685 36.93565212 24 41 C20.34698134 37.79757395 18.39587638 34.21183647 16.375 29.875 C14.20969596 25.09847735 14.20969596 25.09847735 11 21 C10.21745135 19.47459719 9.4721031 17.92992869 8.75 16.375 C6.64499776 12.03304016 4.21055326 8.40013856 1.13671875 4.69140625 C0 3 0 3 0 0 Z " fill="#0C1627" transform="translate(270,603)"/>
<path d="M0 0 C0.66 0 1.32 0 2 0 C3.28100586 1.66479492 3.28100586 1.66479492 4.71484375 3.98046875 C5.23626953 4.81513672 5.75769531 5.64980469 6.29492188 6.50976562 C6.83697266 7.39341797 7.37902344 8.27707031 7.9375 9.1875 C8.47568359 10.05181641 9.01386719 10.91613281 9.56835938 11.80664062 C10.09107422 12.64775391 10.61378906 13.48886719 11.15234375 14.35546875 C11.65838135 15.1652417 12.16441895 15.97501465 12.68579102 16.80932617 C14 19 14 19 15.4609375 22.0625 C16.93102391 24.32894113 16.93102391 24.32894113 20.13671875 24.70703125 C21.30847656 24.74183594 22.48023438 24.77664063 23.6875 24.8125 C24.86699219 24.86019531 26.04648437 24.90789063 27.26171875 24.95703125 C28.61716797 24.97830078 28.61716797 24.97830078 30 25 C30 25.66 30 26.32 30 27 C21.27218337 29.28024038 21.27218337 29.28024038 17 28 C13.61986072 24.81983079 11.36677432 20.95329338 9 17 C8.16810058 15.66577154 7.33470959 14.33247219 6.5 13 C0 2.48655186 0 2.48655186 0 0 Z " fill="#0B1627" transform="translate(454,539)"/>
<path d="M0 0 C0.33 0 0.66 0 1 0 C0.98952637 0.87624023 0.97905273 1.75248047 0.96826172 2.65527344 C0.93379074 5.96535981 0.90891479 9.27525025 0.89013672 12.58544922 C0.8801956 14.00702968 0.86663792 15.42859036 0.84912109 16.85009766 C0.75168566 24.97162763 0.98445621 32.67343959 2.76220703 40.65332031 C3 43 3 43 1 46 C-2.38921117 31.78236572 -6.36530471 13.92572786 0 0 Z " fill="#0B1524" transform="translate(160,410)"/>
<path d="M0 0 C0.66 0 1.32 0 2 0 C2 13.86 2 27.72 2 42 C1.01 42 0.02 42 -1 42 C-0.67 30.78 -0.34 19.56 0 8 C-0.99 7.67 -1.98 7.34 -3 7 C-2.01 7 -1.02 7 0 7 C0 4.69 0 2.38 0 0 Z " fill="#040D1D" transform="translate(887,560)"/>
<path d="M0 0 C0 0.33 0 0.66 0 1 C-1.62808594 1.25523437 -1.62808594 1.25523437 -3.2890625 1.515625 C-4.73450289 1.75966039 -6.17980856 2.00449462 -7.625 2.25 C-8.33785156 2.35957031 -9.05070313 2.46914063 -9.78515625 2.58203125 C-15.59029751 3.59393661 -19.84033648 5.49686059 -23.79296875 10.078125 C-26.90680844 14.92769045 -29.20551936 19.5168647 -31 25 C-31.33 25 -31.66 25 -32 25 C-31.70470605 17.02706341 -28.80320767 10.74161726 -23.0703125 5.1015625 C-15.66539542 -0.80508342 -9.11952963 -1.35783741 0 0 Z " fill="#0B1526" transform="translate(870,488)"/>
<path d="M0 0 C0.33 0 0.66 0 1 0 C1.19875347 2.4370233 1.38407078 4.87396732 1.5625 7.3125 C1.61857422 7.98345703 1.67464844 8.65441406 1.73242188 9.34570312 C2.07779928 14.25006225 1.7761009 18.89214479 1.27368164 23.77661133 C0.69759137 30.56173157 0.61773001 37.38216193 0.4375 44.1875 C0.39419379 45.72722239 0.35057619 47.26693606 0.30664062 48.80664062 C0.20084264 52.53766684 0.09923932 56.26879289 0 60 C-0.33 60 -0.66 60 -1 60 C-1.02533211 52.09798872 -1.04285934 44.1959879 -1.05493164 36.29394531 C-1.05939946 33.60513148 -1.06636119 30.91634118 -1.07543945 28.22753906 C-1.08755371 24.3652275 -1.09323945 20.50295208 -1.09765625 16.640625 C-1.10539818 14.83419525 -1.10539818 14.83419525 -1.11329651 12.99127197 C-1.11340981 11.30998199 -1.11340981 11.30998199 -1.11352539 9.59472656 C-1.115746 8.60877502 -1.11796661 7.62282349 -1.12025452 6.60699463 C-1.01134079 4.2458566 -0.67399991 2.25666764 0 0 Z " fill="#030C1F" transform="translate(636,504)"/>
<path d="M0 0 C1.39613065 0.14295891 2.79189308 0.28951558 4.1875 0.4375 C4.96480469 0.51871094 5.74210938 0.59992188 6.54296875 0.68359375 C9 1 9 1 11.3125 1.5234375 C14.81513597 2.14454446 18.26701918 2.1904007 21.8125 2.1875 C22.87936035 2.18955444 22.87936035 2.18955444 23.96777344 2.19165039 C29.00494813 2.14488157 33.19875954 1.38497321 38 0 C40.203125 0.44140625 40.203125 0.44140625 42 1 C29.51130026 6.6321587 14.89928776 6.86512929 2 2 C1.34 1.34 0.68 0.68 0 0 Z " fill="#0A1426" transform="translate(228,477)"/>
<path d="M0 0 C0.33 0 0.66 0 1 0 C1 1.65 1 3.3 1 5 C-5.66331237 5.87387703 -12.22622947 6.10978889 -18.9375 6.125 C-20.19880737 6.13176758 -20.19880737 6.13176758 -21.4855957 6.13867188 C-22.28312256 6.13673828 -23.08064941 6.13480469 -23.90234375 6.1328125 C-24.61898193 6.13168457 -25.33562012 6.13055664 -26.07397461 6.12939453 C-28 6 -28 6 -31 5 C-31 4.34 -31 3.68 -31 3 C-20.77 3 -10.54 3 0 3 C0 2.01 0 1.02 0 0 Z " fill="#0E1727" transform="translate(154,623)"/>
<path d="M0 0 C0.66 0 1.32 0 2 0 C2.92362491 1.40254152 3.84477709 2.80676917 4.75390625 4.21875 C10.92321791 13.03757796 19.70899274 17.53910696 30 20 C30 20.33 30 20.66 30 21 C21.50300816 21.7867585 15.73956221 18.61769355 8.875 13.8125 C8.25625 13.214375 7.6375 12.61625 7 12 C7 11.34 7 10.68 7 10 C6.401875 9.773125 5.80375 9.54625 5.1875 9.3125 C2.38816589 7.63289954 1.41899939 5.90894875 0 3 C0 2.01 0 1.02 0 0 Z " fill="#0C1829" transform="translate(822,546)"/>
<path d="M0 0 C0.66 0 1.32 0 2 0 C3.2175293 1.58544922 3.2175293 1.58544922 4.57421875 3.8046875 C5.07405273 4.61164063 5.57388672 5.41859375 6.08886719 6.25 C6.61641602 7.11625 7.14396484 7.9825 7.6875 8.875 C11.56166334 15.14811973 15.46498003 21.28664004 19.890625 27.1875 C21 29 21 29 21 32 C20.34 32 19.68 32 19 32 C17.89013672 30.62988281 17.89013672 30.62988281 16.6796875 28.703125 C16.23020752 27.99687988 15.78072754 27.29063477 15.31762695 26.56298828 C14.84156006 25.79970215 14.36549316 25.03641602 13.875 24.25 C12.88765055 22.68951421 11.89936244 21.12962195 10.91015625 19.5703125 C10.42047363 18.7959082 9.93079102 18.02150391 9.42626953 17.22363281 C6.83800954 13.18839282 4.09901601 9.25670039 1.36328125 5.3203125 C0 3 0 3 0 0 Z " fill="#0B1628" transform="translate(432,505)"/>
<path d="M0 0 C3.09081863 2.82720937 4.87981319 5.42555718 6.6875 9.1875 C10.80008669 16.99515189 16.95118441 22.7702336 24 28 C23.01 28.33 22.02 28.66 21 29 C12.08151184 21.40941551 4.67956622 13.85659362 0 3 C0 2.01 0 1.02 0 0 Z " fill="#0D192C" transform="translate(198,445)"/>
<path d="M0 0 C0 0.66 0 1.32 0 2 C-0.99 2.66 -1.98 3.32 -3 4 C-3.99 5.485 -3.99 5.485 -5 7 C-5.66 7 -6.32 7 -7 7 C-12.81925245 11.66877955 -16.78842919 17.40973959 -20.5546875 23.77734375 C-22 26 -22 26 -24 27 C-20.7847965 16.02008004 -12.76170165 8.00284704 -4 1 C-2 0 -2 0 0 0 Z " fill="#091222" transform="translate(186,569)"/>
<path d="M0 0 C-2.88513738 2.24399574 -5.86138263 4.13177537 -9 6 C-15.73527949 10.22659239 -21.30328826 15.50212637 -27 21 C-27.33 20.01 -27.66 19.02 -28 18 C-23.33819397 12.66796627 -18.14582776 8.46089279 -12.3125 4.5 C-11.67111084 4.05479004 -11.02972168 3.60958008 -10.36889648 3.15087891 C-6.80801566 0.79421651 -4.31341298 -0.59381594 0 0 Z " fill="#0B1628" transform="translate(177,536)"/>
<path d="M0 0 C0.33 0 0.66 0 1 0 C1.90152918 6.07827875 2.09250507 11.92478852 2 18.0625 C1.91337631 23.83596901 2.01048566 29.30256199 3 35 C2.34 35 1.68 35 1 35 C0.67 35.66 0.34 36.32 0 37 C-1.32 37 -2.64 37 -4 37 C-4.495 35.515 -4.495 35.515 -5 34 C-2.525 33.505 -2.525 33.505 0 33 C0 22.11 0 11.22 0 0 Z " fill="#0E1A2C" transform="translate(636,531)"/>
<path d="M0 0 C5.56435444 10.05324541 4.2224068 22.87966002 4 34 C3.01 34.495 3.01 34.495 2 35 C1.94465088 34.24380371 1.88930176 33.48760742 1.83227539 32.70849609 C1.57852932 29.26378096 1.32055509 25.8193949 1.0625 22.375 C0.97548828 21.18519531 0.88847656 19.99539063 0.79882812 18.76953125 C0.71181641 17.61582031 0.62480469 16.46210938 0.53515625 15.2734375 C0.456604 14.21560059 0.37805176 13.15776367 0.29711914 12.06787109 C0.04155313 8.96431994 0.04155313 8.96431994 -0.59594727 5.79541016 C-1 3 -1 3 0 0 Z " fill="#142030" transform="translate(337,403)"/>
<path d="M0 0 C6.93 0.33 13.86 0.66 21 1 C21 1.66 21 2.32 21 3 C21.66 3.33 22.32 3.66 23 4 C18.04515817 5.38489368 13.25410852 4.89120615 8.1875 4.5625 C6.86202148 4.48418945 6.86202148 4.48418945 5.50976562 4.40429688 C3.33949592 4.27525381 1.16969307 4.13840044 -1 4 C-0.67 2.68 -0.34 1.36 0 0 Z " fill="#111F31" transform="translate(887,601)"/>
<path d="M0 0 C-0.90621094 0.56847656 -1.81242187 1.13695312 -2.74609375 1.72265625 C-9.09627583 5.73812269 -15.26307749 9.75501342 -21.03515625 14.58984375 C-23.25020096 16.17956768 -25.44167911 17.08219684 -28 18 C-7.70867909 -2.94587965 -7.70867909 -2.94587965 0 0 Z " fill="#0F1C2E" transform="translate(210,348)"/>
<path d="M0 0 C-3.41669897 8.53209573 -13.93514043 13.84018127 -21.58984375 18.1015625 C-24.25992212 19.09689155 -25.38155559 19.00849599 -28 18 C-27.09378906 17.50371094 -26.18757813 17.00742187 -25.25390625 16.49609375 C-13.52390759 10.0019983 -13.52390759 10.0019983 -3.38671875 1.30078125 C-2 0 -2 0 0 0 Z " fill="#0B1424" transform="translate(313,492)"/>
<path d="M0 0 C2.47894956 1.10175536 4.3245446 2.266293 6.4375 4 C11.2571864 7.76170646 15.82963941 8.35018918 21.8125 8.625 C22.85180664 8.68300781 22.85180664 8.68300781 23.91210938 8.7421875 C25.60767015 8.83573568 27.30379712 8.91892364 29 9 C25.81786764 12.18213236 22.1539434 11.4342494 17.82104492 11.44042969 C11.95018453 11.2855443 8.30709232 9.88634809 4 6 C3.175 5.278125 2.35 4.55625 1.5 3.8125 C0 2 0 2 0 0 Z " fill="#0D1A2E" transform="translate(843,538)"/>
<path d="M0 0 C3.25830562 2.90310249 4.78734778 5.31705204 6.1875 9.4375 C6.67283203 10.82775391 6.67283203 10.82775391 7.16796875 12.24609375 C8.8010309 17.65129944 9.27196616 22.37936599 9 28 C8.34 28.99 7.68 29.98 7 31 C6.93006836 30.43603516 6.86013672 29.87207031 6.78808594 29.29101562 C6.45707001 26.69184875 6.1036923 24.09617441 5.75 21.5 C5.64042969 20.613125 5.53085937 19.72625 5.41796875 18.8125 C4.6772367 13.51041796 3.50766304 9.31965104 0.81347656 4.67382812 C0 3 0 3 0 0 Z " fill="#0B1728" transform="translate(882,496)"/>
<path d="M0 0 C7.26 0 14.52 0 22 0 C22 0.66 22 1.32 22 2 C15.4 2 8.8 2 2 2 C2 5.3 2 8.6 2 12 C-0.42115191 9.57884809 -0.60948898 8.35839475 -1 5 C-0.67 3.35 -0.34 1.7 0 0 Z " fill="#152234" transform="translate(888,470)"/>
<path d="M0 0 C0.71875 1.546875 0.71875 1.546875 1 4 C-0.06266962 6.56221453 -1.15737309 8.84264427 -2.5 11.25 C-2.86367676 11.91588135 -3.22735352 12.5817627 -3.60205078 13.26782227 C-6.43688322 18.31402096 -9.5370254 23.22456473 -14 27 C-14.66 27 -15.32 27 -16 27 C-14.56459564 23.91213012 -12.83033052 21.30065446 -10.8125 18.5625 C-6.61572429 12.66409044 -3.31298676 6.42457614 0 0 Z " fill="#08101E" transform="translate(332,462)"/>
<path d="M0 0 C4.62421109 0.51662432 7.23451338 2.36494089 10.875 5.1875 C11.91914063 5.99445312 12.96328125 6.80140625 14.0390625 7.6328125 C17.43426654 10.34718407 20.74723892 13.11687086 24 16 C23.67 16.99 23.34 17.98 23 19 C22.09378906 18.20335937 21.18757813 17.40671875 20.25390625 16.5859375 C14.22106957 11.32481983 8.31218367 6.20150957 1.4765625 1.98828125 C0.98929687 1.66214844 0.50203125 1.33601562 0 1 C0 0.67 0 0.34 0 0 Z " fill="#0D1A2E" transform="translate(257,546)"/>
<path d="M0 0 C0.99 0.33 1.98 0.66 3 1 C3.33 3.97 3.66 6.94 4 10 C6.97851562 9.90234375 6.97851562 9.90234375 9.95703125 9.8046875 C12 10 12 10 15 12 C12.06984708 13.46507646 9.32231769 13.0213589 6.09375 12.9375 C3.93974478 12.85499134 3.93974478 12.85499134 2 14 C0.39274365 10.78548731 0.94251815 7.56387464 1 4 C0.01 3.67 -0.98 3.34 -2 3 C-1.34 2.01 -0.68 1.02 0 0 Z " fill="#0B182C" transform="translate(571,554)"/>
<path d="M0 0 C4.34025427 2.07858331 8.45809461 4.55361286 12.60351562 6.99023438 C15.64371656 8.75069969 18.61280639 10.28342042 21.88671875 11.56640625 C23.42779297 12.27603516 23.42779297 12.27603516 25 13 C25.33 13.99 25.66 14.98 26 16 C16.39977782 13.27993705 6.47108743 8.85774903 0 1 C0 0.67 0 0.34 0 0 Z " fill="#0D192B" transform="translate(193,499)"/>
<path d="M0 0 C1 3 1 3 0.22265625 5.04296875 C-0.35162109 6.10451172 -0.35162109 6.10451172 -0.9375 7.1875 C-1.31777344 7.90292969 -1.69804688 8.61835938 -2.08984375 9.35546875 C-2.39019531 9.89816406 -2.69054687 10.44085938 -3 11 C-5.43929614 10.54994536 -7.87611777 10.09035124 -10.3125 9.625 C-11.00279297 9.49867188 -11.69308594 9.37234375 -12.40429688 9.2421875 C-15.83703314 8.57885682 -18.05246458 7.96502361 -21 6 C-21 5.34 -21 4.68 -21 4 C-12.585 5.98 -12.585 5.98 -4 8 C-3.67 6.68 -3.34 5.36 -3 4 C-1.4375 1.75 -1.4375 1.75 0 0 Z " fill="#0D1A2E" transform="translate(539,492)"/>
<path d="M0 0 C0.73089844 0.00410889 1.46179688 0.00821777 2.21484375 0.01245117 C3.01148438 0.01438477 3.808125 0.01631836 4.62890625 0.01831055 C5.87800781 0.03667969 5.87800781 0.03667969 7.15234375 0.05541992 C7.98507812 0.05606445 8.8178125 0.05670898 9.67578125 0.05737305 C15.8714786 0.10248735 15.8714786 0.10248735 18.15234375 1.24291992 C18.15234375 4.87291992 18.15234375 8.50291992 18.15234375 12.24291992 C17.49234375 12.24291992 16.83234375 12.24291992 16.15234375 12.24291992 C15.82234375 9.27291992 15.49234375 6.30291992 15.15234375 3.24291992 C8.88234375 2.91291992 2.61234375 2.58291992 -3.84765625 2.24291992 C-1.84765625 0.24291992 -1.84765625 0.24291992 0 0 Z " fill="#111D2F" transform="translate(617.84765625,469.757080078125)"/>
<path d="M0 0 C9.3036219 1.82027385 16.82654819 8.0142519 23 15 C23 15.66 23 16.32 23 17 C19.95155325 15.63021335 17.79773336 14.03870982 15.375 11.75 C11.54910798 8.29877161 7.49523064 5.76451784 3.00390625 3.26171875 C1 2 1 2 0 0 Z " fill="#101D2F" transform="translate(267,378)"/>
<path d="M0 0 C3.6739084 1.22463613 4.14932173 2.71636115 5.91601562 6.00830078 C7.68636984 9.26112728 9.73330202 12.33362445 11.75 15.4375 C12.16121094 16.07365234 12.57242187 16.70980469 12.99609375 17.36523438 C13.99575334 18.91121955 14.99763927 20.45576477 16 22 C15.34 22.66 14.68 23.32 14 24 C11.84494702 20.75602641 9.70260251 17.50385219 7.5625 14.25 C6.95083984 13.32960938 6.33917969 12.40921875 5.70898438 11.4609375 C5.12568359 10.57148438 4.54238281 9.68203125 3.94140625 8.765625 C3.13231812 7.54020996 3.13231812 7.54020996 2.30688477 6.29003906 C1.08489773 4.14876532 0.44739868 2.40869778 0 0 Z " fill="#0B1729" transform="translate(413,476)"/>
<path d="M0 0 C0.33 0 0.66 0 1 0 C1 6.6 1 13.2 1 20 C1.66 20 2.32 20 3 20 C3.4813341 21.72856459 3.95996971 23.45788071 4.4375 25.1875 C4.83775391 26.63189453 4.83775391 26.63189453 5.24609375 28.10546875 C5.92880018 30.72663697 6.49892195 33.338935 7 36 C6.01 35.67 5.02 35.34 4 35 C-1.28814099 24.03462404 -0.44024682 11.82909341 0 0 Z " fill="#122135" transform="translate(815,509)"/>
<path d="M0 0 C-0.66 0 -1.32 0 -2 0 C-2 0.66 -2 1.32 -2 2 C-10.25 2 -18.5 2 -27 2 C-27 1.34 -27 0.68 -27 0 C-23.25044125 -0.19713345 -19.50034696 -0.3810316 -15.75 -0.5625 C-14.68652344 -0.61857422 -13.62304688 -0.67464844 -12.52734375 -0.73242188 C-10.99013672 -0.80493164 -10.99013672 -0.80493164 -9.421875 -0.87890625 C-8.47924805 -0.9260376 -7.53662109 -0.97316895 -6.56542969 -1.02172852 C-4.17740544 -1.00150258 -2.27325608 -0.69460602 0 0 Z " fill="#101C2B" transform="translate(335,670)"/>
<path d="M0 0 C0 0.33 0 0.66 0 1 C-9.52626344 2.52420215 -19.49606115 2.81027407 -29 1 C-29 0.67 -29 0.34 -29 0 C-19.19122816 -1.28639631 -9.80877184 -1.28639631 0 0 Z " fill="#12233A" transform="translate(220,530)"/>
<path d="M0 0 C2.25 0.125 2.25 0.125 5 1 C8.51310101 5.09861785 10 8.59557174 10 14 C8.92844558 16.83588124 7.56788486 19.40928897 6 22 C5.34 22 4.68 22 4 22 C4.33 21.38125 4.66 20.7625 5 20.125 C6.41114587 15.71516916 6.76883055 11.58283306 6 7 C3.72872666 3.97590636 3.72872666 3.97590636 1 2 C0.67 1.34 0.34 0.68 0 0 Z " fill="#0D1625" transform="translate(795,436)"/>
<path d="M0 0 C0 0.33 0 0.66 0 1 C-0.68964844 1.01417969 -1.37929688 1.02835937 -2.08984375 1.04296875 C-8.96297133 1.39181062 -14.6502272 2.42716516 -20 7 C-21.80292863 9.63130124 -22.82966447 11.99783494 -24 15 C-24.66 13.68 -25.32 12.36 -26 11 C-19.87621413 0.02821698 -11.98711131 -0.75761237 0 0 Z " fill="#091324" transform="translate(725,488)"/>
<path d="M0 0 C3.79160297 -0.05786668 7.58309311 -0.09355054 11.375 -0.125 C12.45523438 -0.14175781 13.53546875 -0.15851563 14.6484375 -0.17578125 C15.6796875 -0.18222656 16.7109375 -0.18867188 17.7734375 -0.1953125 C19.20308838 -0.21102295 19.20308838 -0.21102295 20.66162109 -0.22705078 C23 0 23 0 25 2 C24.01 3.485 24.01 3.485 23 5 C22.34 4.67 21.68 4.34 21 4 C21 3.34 21 2.68 21 2 C14.4 2 7.8 2 1 2 C0.67 2.66 0.34 3.32 0 4 C0 2.68 0 1.36 0 0 Z " fill="#172539" transform="translate(779,470)"/>
<path d="M0 0 C3.07259503 0.31424267 4.02728951 1.02820236 6.21875 3.29296875 C8.49648559 6.18304079 10.77061795 9.07240489 13 12 C13.49757813 12.64582031 13.99515625 13.29164063 14.5078125 13.95703125 C15.625 15.5 15.625 15.5 17 18 C16.67 18.99 16.34 19.98 16 21 C10.62450675 14.03098109 5.25878139 7.05783818 0 0 Z " fill="#0A1427" transform="translate(284,568)"/>
<path d="M0 0 C0.66 0 1.32 0 2 0 C0.549046 3.82524236 -1.38181932 5.19090966 -5 7 C-5.66 7 -6.32 7 -7 7 C-7.33 7.66 -7.66 8.32 -8 9 C-13.94 9 -19.88 9 -26 9 C-26 8.67 -26 8.34 -26 8 C-25.03320312 7.91363281 -24.06640625 7.82726562 -23.0703125 7.73828125 C-10.55066077 6.46073757 -10.55066077 6.46073757 0 0 Z " fill="#0A1221" transform="translate(880,559)"/>
<path d="M0 0 C1.72206188 2.99126319 2.24179923 5.10685713 2.1953125 8.546875 C2.18886719 9.39121094 2.18242188 10.23554687 2.17578125 11.10546875 C2.15902344 11.97816406 2.14226563 12.85085938 2.125 13.75 C2.11597656 14.63816406 2.10695313 15.52632812 2.09765625 16.44140625 C2.07414577 18.62788058 2.04128499 20.81380094 2 23 C1.34 23 0.68 23 0 23 C-2.33207033 14.69199943 -2.33207033 8.30800057 0 0 Z " fill="#0E1D32" transform="translate(513,528)"/>
<path d="M0 0 C0.66 0 1.32 0 2 0 C2 0.66 2 1.32 2 2 C2.55171875 2.21398437 3.1034375 2.42796875 3.671875 2.6484375 C6.78119236 4.453511 8.91272137 6.94800064 11.25 9.625 C11.70890625 10.140625 12.1678125 10.65625 12.640625 11.1875 C13.76592296 12.4534602 14.88372177 13.72607942 16 15 C15.67 15.99 15.34 16.98 15 18 C1.68215892 5.04647676 1.68215892 5.04647676 0 0 Z " fill="#0D1727" transform="translate(252,583)"/>
<path d="M0 0 C3.63643749 3.52624241 6.97076139 7.23317727 10.28515625 11.0625 C12.42884237 13.4845235 14.6786139 15.74895893 17 18 C13.13066838 17.42676569 10.84777943 15.61046448 8 13 C8 12.34 8 11.68 8 11 C7.34 11 6.68 11 6 11 C4.4921875 9.35546875 4.4921875 9.35546875 2.875 7.1875 C2.06675781 6.12595703 2.06675781 6.12595703 1.2421875 5.04296875 C0 3 0 3 0 0 Z " fill="#0B1526" transform="translate(175,480)"/>
<path d="M0 0 C0 0.33 0 0.66 0 1 C-4.455 1.495 -4.455 1.495 -9 2 C-9 2.33 -9 2.66 -9 3 C-18.405 3.495 -18.405 3.495 -28 4 C-21.84828813 -2.15171187 -8.1065556 -0.19692038 0 0 Z " fill="#112137" transform="translate(560,509)"/>
<path d="M0 0 C1.24265625 -0.00257813 2.4853125 -0.00515625 3.765625 -0.0078125 C6.75 0.125 6.75 0.125 7.75 1.125 C7.82179964 2.64428038 7.83392007 4.16667482 7.8125 5.6875 C7.80347656 6.51378906 7.79445313 7.34007812 7.78515625 8.19140625 C7.77355469 8.82949219 7.76195312 9.46757813 7.75 10.125 C7.42 10.125 7.09 10.125 6.75 10.125 C6.75 7.485 6.75 4.845 6.75 2.125 C6.09 2.125 5.43 2.125 4.75 2.125 C4.42 3.445 4.09 4.765 3.75 6.125 C3.42 5.135 3.09 4.145 2.75 3.125 C-2.2 2.795 -7.15 2.465 -12.25 2.125 C-12.25 1.795 -12.25 1.465 -12.25 1.125 C-8.1221011 0.13241362 -4.2391109 -0.00886843 0 0 Z " fill="#050D1D" transform="translate(566.25,521.875)"/>
<path d="M0 0 C4.47842623 0.92521333 7.6807718 2.87319082 11 6 C13.44716483 9.74775592 14.40677234 13.52550422 14 18 C12.06283475 15.57854344 10.59831809 13.25019377 9.125 10.5 C6.91236288 6.53427347 4.0753453 4.03767265 0 2 C0 1.34 0 0.68 0 0 Z " fill="#0E1B2F" transform="translate(743,474)"/>
<path d="M0 0 C0.33 0 0.66 0 1 0 C1.19466332 1.79090253 1.38051213 3.58276505 1.5625 5.375 C1.66691406 6.37273437 1.77132812 7.37046875 1.87890625 8.3984375 C2 11 2 11 1 13 C0.84995027 14.3734635 0.75161994 15.7528526 0.68359375 17.1328125 C0.62075195 18.34130859 0.62075195 18.34130859 0.55664062 19.57421875 C0.51732422 20.41597656 0.47800781 21.25773437 0.4375 22.125 C0.39431641 22.97449219 0.35113281 23.82398438 0.30664062 24.69921875 C0.20045764 26.79928223 0.09971503 28.89961948 0 31 C-0.33 31 -0.66 31 -1 31 C-1.02465622 26.74585377 -1.04283899 22.49174502 -1.05493164 18.23754883 C-1.05997101 16.78929927 -1.06680253 15.34105483 -1.07543945 13.89282227 C-1.08752247 11.81525412 -1.09323211 9.73775303 -1.09765625 7.66015625 C-1.10289307 6.40855713 -1.10812988 5.15695801 -1.11352539 3.86743164 C-1 1 -1 1 0 0 Z " fill="#040E1C" transform="translate(801,473)"/>
<path d="M0 0 C0.78375 0.04125 1.5675 0.0825 2.375 0.125 C1.7975 0.681875 1.22 1.23875 0.625 1.8125 C-3.9816607 6.5471235 -6.09436661 9.35942434 -6.625 16.125 C-7.285 16.125 -7.945 16.125 -8.625 16.125 C-9.0476988 9.99586741 -8.63463916 7.07808367 -4.625 2.125 C-2.625 0.125 -2.625 0.125 0 0 Z " fill="#0E1B2C" transform="translate(784.625,435.875)"/>
<path d="M0 0 C0.66 0 1.32 0 2 0 C0.99117074 6.80959748 -2.79935927 12.03855935 -7.875 16.5625 C-8.57625 17.036875 -9.2775 17.51125 -10 18 C-9.39443624 14.67678424 -8.23528183 12.73922973 -6.125 10.125 C-3.61752546 6.90627067 -1.68204938 3.7378875 0 0 Z " fill="#0C192B" transform="translate(297,448)"/>
<path d="M0 0 C7.59 0 15.18 0 23 0 C16.17962421 4.54691719 7.76091699 2.84076601 0 2 C0 1.34 0 0.68 0 0 Z " fill="#040A18" transform="translate(388,564)"/>
<path d="M0 0 C1.89492188 0.15275391 1.89492188 0.15275391 3.828125 0.30859375 C4.79234375 0.39238281 5.7565625 0.47617187 6.75 0.5625 C6.75 0.8925 6.75 1.2225 6.75 1.5625 C4.99623047 1.74425781 4.99623047 1.74425781 3.20703125 1.9296875 C1.65881329 2.09858401 0.11063839 2.26787568 -1.4375 2.4375 C-2.20642578 2.51613281 -2.97535156 2.59476563 -3.76757812 2.67578125 C-7.96631241 3.14430954 -11.31778093 3.96660853 -15.25 5.5625 C-16.24 5.2325 -17.23 4.9025 -18.25 4.5625 C-11.55291167 0.57000503 -7.95582887 -0.66298574 0 0 Z " fill="#102137" transform="translate(557.25,523.4375)"/>
<path d="M0 0 C0.33 0.99 0.66 1.98 1 3 C0.34 3.66 -0.32 4.32 -1 5 C-1.721875 4.21625 -2.44375 3.4325 -3.1875 2.625 C-8.05015272 -1.91347587 -12.6029402 -2.34945155 -19 -3 C-19 -3.33 -19 -3.66 -19 -4 C-11.50272216 -5.49945557 -6.53463826 -3.79920829 0 0 Z " fill="#102036" transform="translate(882,493)"/>
<path d="M0 0 C13.61756726 -1.03279302 13.61756726 -1.03279302 18.75 2.75 C21.26286602 4.91324987 22.65801993 6.9739665 24 10 C23.01 10.495 23.01 10.495 22 11 C21.29875 10.071875 20.5975 9.14375 19.875 8.1875 C15.6667553 3.23112291 11.49690353 1.91701392 5.125 1.3125 C3.41743713 1.19638572 1.70923212 1.08819881 0 1 C0 0.67 0 0.34 0 0 Z " fill="#08101E" transform="translate(651,488)"/>
<path d="M0 0 C-0.99 0.495 -0.99 0.495 -2 1 C-2.33 1.99 -2.66 2.98 -3 4 C-4.68256208 4.72581109 -6.36883334 5.44506061 -8.078125 6.10546875 C-11.19361585 7.5555651 -13.45907134 9.70696682 -16 12 C-13.95829216 4.85402257 -7.40140038 -0.4000757 0 0 Z " fill="#0A172B" transform="translate(712,471)"/>
<path d="M0 0 C0.99 1.0828125 0.99 1.0828125 2 2.1875 C6.48068184 6.66818184 12.01660059 9.94320645 18 12 C18 12.33 18 12.66 18 13 C11.41158185 12.88021058 7.95772674 10.99466978 2.78515625 6.984375 C0.69543125 4.66144218 0.33309532 3.06659182 0 0 Z " fill="#0C1525" transform="translate(516,553)"/>
<path d="M0 0 C0.70125 0.763125 1.4025 1.52625 2.125 2.3125 C1.795 3.3025 1.465 4.2925 1.125 5.3125 C0.403125 4.549375 -0.31875 3.78625 -1.0625 3 C-7.04266259 -2.71437759 -11.81207738 -3.27799955 -19.875 -3.6875 C-19.875 -4.0175 -19.875 -4.3475 -19.875 -4.6875 C-11.37842486 -5.94233227 -6.55453931 -6.12706935 0 0 Z " fill="#132338" transform="translate(733.875,493.6875)"/>
<path d="M0 0 C0.74507812 0.00451172 1.49015625 0.00902344 2.2578125 0.01367188 C4.0885764 0.02540754 5.91929873 0.0433415 7.75 0.0625 C7.75 0.7225 7.75 1.3825 7.75 2.0625 C4.79170322 2.229838 1.83336635 2.39640052 -1.125 2.5625 C-2.38763672 2.63404297 -2.38763672 2.63404297 -3.67578125 2.70703125 C-4.88427734 2.77470703 -4.88427734 2.77470703 -6.1171875 2.84375 C-7.23262939 2.9065918 -7.23262939 2.9065918 -8.37060547 2.97070312 C-9.66255875 3.0338071 -10.95650651 3.0625 -12.25 3.0625 C-12.25 2.4025 -12.25 1.7425 -12.25 1.0625 C-8.15996141 -0.08732602 -4.21822949 -0.04844256 0 0 Z " fill="#050D1B" transform="translate(688.25,563.9375)"/>
<path d="M0 0 C7.40054446 0.30835602 11.86565465 3.86565465 17 9 C16.67 9.99 16.34 10.98 16 12 C15.43152344 11.45730469 14.86304688 10.91460937 14.27734375 10.35546875 C9.71751853 6.13058896 5.90248565 3.00935682 0 1 C0 0.67 0 0.34 0 0 Z " fill="#0B172A" transform="translate(675,471)"/>
<path d="M0 0 C3.89567982 2.59711988 4.89926954 5.61236606 6 10 C6.22194927 12.72812641 6.14699813 15.2560349 6 18 C5.01 18 4.02 18 3 18 C3.0928125 16.515 3.0928125 16.515 3.1875 15 C3.21072181 11.19162334 2.1540059 8.26390255 0.65625 4.796875 C0 3 0 3 0 0 Z " fill="#0C1525" transform="translate(333,651)"/>
<path d="M0 0 C4.4286907 -0.40549951 6.59570883 0.63901277 10.1875 3.1875 C11.04730469 3.77917969 11.90710938 4.37085938 12.79296875 4.98046875 C15.21191494 7.19391155 16.04132398 8.89903119 17 12 C16.52691406 11.62488281 16.05382812 11.24976563 15.56640625 10.86328125 C10.62193225 7.03685595 5.53679445 3.89656376 0 1 C0 0.67 0 0.34 0 0 Z " fill="#0B1628" transform="translate(870,471)"/>
<path d="M0 0 C1.37344385 4.39844322 0.24307502 7.92504555 -0.9375 12.25 C-1.23043945 13.36761719 -1.23043945 13.36761719 -1.52929688 14.5078125 C-2.01104198 16.34079386 -2.50439225 18.17071818 -3 20 C-3.33 20 -3.66 20 -4 20 C-4.38882348 13.10198348 -3.79990717 7.36870077 -1 1 C-0.67 0.67 -0.34 0.34 0 0 Z " fill="#0A1321" transform="translate(128,593)"/>
<path d="M0 0 C0.99 0.33 1.98 0.66 3 1 C-3.15520557 9.90495376 -3.15520557 9.90495376 -8 12 C-8.99 12 -9.98 12 -11 12 C-11 11.34 -11 10.68 -11 10 C-6.61538462 7 -6.61538462 7 -4 7 C-3.71125 6.401875 -3.4225 5.80375 -3.125 5.1875 C-2 3 -2 3 0 0 Z " fill="#0C192C" transform="translate(884,535)"/>
<path d="M0 0 C2.29633824 3.44450737 2.54016485 5.93812283 3 10 C2.34 10 1.68 10 1 10 C0.67 10.66 0.34 11.32 0 12 C-1.32 12 -2.64 12 -4 12 C-4.33 11.01 -4.66 10.02 -5 9 C-3.35 8.67 -1.7 8.34 0 8 C0 5.36 0 2.72 0 0 Z " fill="#152335" transform="translate(636,556)"/>
<path d="M0 0 C6.02770138 0.47587116 10.76678289 3.19722957 16 6 C15.01 6.66 14.02 7.32 13 8 C8.71 5.69 4.42 3.38 0 1 C0 0.67 0 0.34 0 0 Z " fill="#0B162A" transform="translate(240,537)"/>
<path d="M0 0 C-2.78053629 2.78053629 -6.05514227 4.0229608 -9.58984375 5.68359375 C-11.84501444 6.91534825 -13.31126164 8.08832588 -15 10 C-15.66 9.67 -16.32 9.34 -17 9 C-12.41417273 3.99727934 -7.29336123 -0.88404379 0 0 Z " fill="#0A1324" transform="translate(848,471)"/>
<path d="M0 0 C0 0.66 0 1.32 0 2 C-0.99 2.66 -1.98 3.32 -3 4 C-3.99 5.485 -3.99 5.485 -5 7 C-5.66 7 -6.32 7 -7 7 C-8.69774938 8.29352333 -10.36739286 9.62517293 -12 11 C-11.64037102 8.14820529 -11.11014144 7.10604616 -9.00390625 5.078125 C-8.19824219 4.47484375 -7.39257812 3.8715625 -6.5625 3.25 C-5.75941406 2.63640625 -4.95632812 2.0228125 -4.12890625 1.390625 C-2 0 -2 0 0 0 Z " fill="#0F1C2E" transform="translate(186,569)"/>
<path d="M0 0 C2.88465878 5.1923858 3.33413071 10.09702419 3 16 C2.34 16.66 1.68 17.32 1 18 C0.63737003 15.56348622 0.28461036 13.12623023 -0.0625 10.6875 C-0.2181543 9.65206055 -0.2181543 9.65206055 -0.37695312 8.59570312 C-0.83808836 5.30415164 -1.06594625 3.19783876 0 0 Z " fill="#0F1A2A" transform="translate(337,403)"/>
<path d="M0 0 C0.33 0 0.66 0 1 0 C1 1.65 1 3.3 1 5 C-0.60320974 5.19551338 -2.20762986 5.38111983 -3.8125 5.5625 C-4.70582031 5.66691406 -5.59914062 5.77132812 -6.51953125 5.87890625 C-9 6 -9 6 -12 5 C-12 4.34 -12 3.68 -12 3 C-8.04 3 -4.08 3 0 3 C0 2.01 0 1.02 0 0 Z " fill="#070E1B" transform="translate(154,623)"/>
<path d="M0 0 C0.33 0 0.66 0 1 0 C1.33 4.62 1.66 9.24 2 14 C1.01 14 0.02 14 -1 14 C-1.02685938 11.85423363 -1.04633088 9.70837355 -1.0625 7.5625 C-1.07410156 6.36753906 -1.08570313 5.17257812 -1.09765625 3.94140625 C-1 1 -1 1 0 0 Z " fill="#091324" transform="translate(698,552)"/>
<path d="M0 0 C2.10494301 0.08708038 4.20902142 0.19525693 6.3125 0.3125 C8.07013672 0.39951172 8.07013672 0.39951172 9.86328125 0.48828125 C13 1 13 1 16 4 C11.05 4 6.1 4 1 4 C0.67 2.68 0.34 1.36 0 0 Z " fill="#132841" transform="translate(658,467)"/>
<path d="M0 0 C3.16545202 1.58272601 3.71120622 4.39683131 5.125 7.5625 C5.66382813 8.76003906 6.20265625 9.95757812 6.7578125 11.19140625 C7.16773438 12.11824219 7.57765625 13.04507812 8 14 C7.01 14 6.02 14 5 14 C4.15675328 12.421924 3.32576082 10.8372958 2.5 9.25 C2.0359375 8.36828125 1.571875 7.4865625 1.09375 6.578125 C0 4 0 4 0 0 Z " fill="#0B1626" transform="translate(166,464)"/>
<path d="M0 0 C4.95 0 9.9 0 15 0 C15 0.66 15 1.32 15 2 C12.87562788 2.19448477 10.75046809 2.38038289 8.625 2.5625 C7.44164062 2.66691406 6.25828125 2.77132812 5.0390625 2.87890625 C2 3 2 3 0 2 C0 1.34 0 0.68 0 0 Z " fill="#020815" transform="translate(785,564)"/>
<path d="M0 0 C6.93 0.495 6.93 0.495 14 1 C14 1.66 14 2.32 14 3 C11.00519083 3.8723412 8.36424089 4.10829766 5.25 4.0625 C4.45078125 4.05347656 3.6515625 4.04445313 2.828125 4.03515625 C2.22484375 4.02355469 1.6215625 4.01195312 1 4 C0.67 2.68 0.34 1.36 0 0 Z " fill="#060C1A" transform="translate(470,563)"/>
<path d="M0 0 C0.33 1.32 0.66 2.64 1 4 C1.66 4 2.32 4 3 4 C3.2475 4.721875 3.495 5.44375 3.75 6.1875 C5.10983674 9.24713266 6.82917754 11.4673738 9 14 C5.61789551 12.81169302 3.25646263 11.82057829 1 9 C0.48828125 6.73828125 0.48828125 6.73828125 0.3125 4.3125 C0.24675781 3.50425781 0.18101562 2.69601562 0.11328125 1.86328125 C0.07589844 1.24839844 0.03851562 0.63351562 0 0 Z " fill="#0A172B" transform="translate(534,536)"/>
<path d="M0 0 C0 3.78713193 -1.26892594 5.83354401 -3 9.1875 C-3.556875 10.27417969 -4.11375 11.36085938 -4.6875 12.48046875 C-5.120625 13.31191406 -5.55375 14.14335937 -6 15 C-7.03274898 12.31485266 -7.07566569 11.2078412 -6.07421875 8.45703125 C-5.61660156 7.58433594 -5.15898437 6.71164062 -4.6875 5.8125 C-4.23761719 4.93207031 -3.78773438 4.05164063 -3.32421875 3.14453125 C-2 1 -2 1 0 0 Z " fill="#0A1222" transform="translate(172,380)"/>
<path d="M0 0 C-1.41166886 0.98635837 -2.82956184 1.96381255 -4.25 2.9375 C-5.43335938 3.75541016 -5.43335938 3.75541016 -6.640625 4.58984375 C-8.82636993 5.89622441 -10.5153801 6.54980511 -13 7 C-13 6.34 -13 5.68 -13 5 C-10.91796875 3.45703125 -10.91796875 3.45703125 -8.1875 1.8125 C-7.29417969 1.26207031 -6.40085937 0.71164062 -5.48046875 0.14453125 C-3 -1 -3 -1 0 0 Z " fill="#0B1629" transform="translate(284,470)"/>
<path d="M0 0 C3.73907104 2.49271403 3.97913078 3.68093791 5 8 C5.15216356 11.00891171 5.12038111 13.99047214 5 17 C4.67 17 4.34 17 4 17 C3.896875 15.989375 3.79375 14.97875 3.6875 13.9375 C3.15671997 10.89757802 2.66392645 8.96317927 1.4375 6.25 C0 3 0 3 0 0 Z " fill="#091428" transform="translate(569,492)"/>
<path d="M0 0 C0.99 0.33 1.98 0.66 3 1 C1.88037801 2.64949657 0.75413155 4.29449838 -0.375 5.9375 C-1.00148437 6.85402344 -1.62796875 7.77054687 -2.2734375 8.71484375 C-4 11 -4 11 -6 12 C-4.68139111 7.38486888 -2.78644563 3.90102388 0 0 Z " fill="#0C182A" transform="translate(206,395)"/>
<path d="M0 0 C2.79081339 1.3954067 3.03903006 3.01419041 4.1875 5.875 C4.55230469 6.75929688 4.91710937 7.64359375 5.29296875 8.5546875 C6 11 6 11 5 14 C2.96470413 11.96470413 2.3615728 10.76582618 1.375 8.125 C1.11460937 7.44695313 0.85421875 6.76890625 0.5859375 6.0703125 C0 4 0 4 0 0 Z " fill="#0A1322" transform="translate(296,649)"/>
<path d="M0 0 C0.33 0 0.66 0 1 0 C1 2.97 1 5.94 1 9 C-1.97 8.67 -4.94 8.34 -8 8 C-8 7.34 -8 6.68 -8 6 C-5.36 6 -2.72 6 0 6 C0 4.02 0 2.04 0 0 Z " fill="#122541" transform="translate(572,502)"/>
<path d="M0 0 C3.05849168 2.75264252 4.87391379 5.00751252 6 9 C5.67 9.99 5.34 10.98 5 12 C5 11.34 5 10.68 5 10 C4.01 10.33 3.02 10.66 2 11 C1.855625 10.113125 1.71125 9.22625 1.5625 8.3125 C1.08980022 5.52882354 0.56929815 2.76516243 0 0 Z " fill="#0B1627" transform="translate(294,400)"/>
<path d="M0 0 C5.17930997 1.24303439 8.70166639 2.85487785 13 6 C11.296875 6.6796875 11.296875 6.6796875 9 7 C6.640625 5.8203125 6.640625 5.8203125 4.25 4.125 C3.45078125 3.57070313 2.6515625 3.01640625 1.828125 2.4453125 C1.22484375 1.96835937 0.6215625 1.49140625 0 1 C0 0.67 0 0.34 0 0 Z " fill="#091325" transform="translate(267,378)"/>
<path d="M0 0 C3.57983659 3.34118082 5.89716734 5.73768141 6.125 10.75 C6.08375 11.4925 6.0425 12.235 6 13 C3.19438607 11.59719304 2.99319493 9.9490995 1.875 7.0625 C1.52179688 6.16660156 1.16859375 5.27070312 0.8046875 4.34765625 C0 2 0 2 0 0 Z " fill="#0C1524" transform="translate(325,632)"/>
<path d="M0 0 C0 3.54404336 -0.60989485 4.10267905 -2.875 6.6875 C-3.40867187 7.31011719 -3.94234375 7.93273437 -4.4921875 8.57421875 C-6 10 -6 10 -8 10 C-6.23915938 6.0381086 -3.9706445 1.98532225 0 0 Z " fill="#0E192B" transform="translate(324,479)"/>
<path d="M0 0 C-1.35094581 4.05283743 -3.37995418 4.87056128 -7 7 C-9.375 7.75 -9.375 7.75 -11 8 C-8.21659292 4.18570141 -5.12174212 0 0 0 Z " fill="#0B1627" transform="translate(224,381)"/>
<path d="M0 0 C0.33 0 0.66 0 1 0 C2.32854177 5.9180497 1.66464729 8.77729131 -1 14 C-1.66 14 -2.32 14 -3 14 C-2.01 9.38 -1.02 4.76 0 0 Z " fill="#142438" transform="translate(888,521)"/>
<path d="M0 0 C0.66 0.33 1.32 0.66 2 1 C-0.31 4.63 -2.62 8.26 -5 12 C-6 8 -6 8 -4.1875 4.875 C-2 2 -2 2 0 0 Z " fill="#091221" transform="translate(524,480)"/>
<path d="M0 0 C-4.10457614 2.98514628 -6.97745369 3.2954439 -12 3 C-11 1 -11 1 -9.2578125 0.33203125 C-8.55398438 0.16058594 -7.85015625 -0.01085937 -7.125 -0.1875 C-6.42632812 -0.36667969 -5.72765625 -0.54585937 -5.0078125 -0.73046875 C-3 -1 -3 -1 0 0 Z " fill="#091222" transform="translate(282,513)"/>
<path d="M0 0 C0.66 0 1.32 0 2 0 C2 0.66 2 1.32 2 2 C2.8971875 2.37125 2.8971875 2.37125 3.8125 2.75 C6.28647521 4.16370012 7.43370255 5.65055383 9 8 C6 8 6 8 4.39453125 6.7578125 C3.87246094 6.21898437 3.35039062 5.68015625 2.8125 5.125 C2.28269531 4.59132813 1.75289062 4.05765625 1.20703125 3.5078125 C0 2 0 2 0 0 Z " fill="#071021" transform="translate(252,583)"/>
<path d="M0 0 C-2.87949147 2.23960447 -5.76742026 4.29864224 -9 6 C-9.66 5.67 -10.32 5.34 -11 5 C-7.17906575 1.05170128 -5.52310605 -0.1453449 0 0 Z " fill="#081223" transform="translate(654,471)"/>
<path d="M0 0 C0.66 0 1.32 0 2 0 C2.39063507 1.43333021 2.76198474 2.87192679 3.125 4.3125 C3.33382812 5.11300781 3.54265625 5.91351563 3.7578125 6.73828125 C4 9 4 9 2 12 C0.86235649 7.73383684 0 4.43513689 0 0 Z " fill="#111D30" transform="translate(159,444)"/>
<path d="M0 0 C0.598125 0.78375 1.19625 1.5675 1.8125 2.375 C3.91085249 5.14574323 3.91085249 5.14574323 7 7 C5.1875 7.6875 5.1875 7.6875 3 8 C1.25 6.875 1.25 6.875 0 5 C-0.1875 2.3125 -0.1875 2.3125 0 0 Z " fill="#0B1424" transform="translate(302,663)"/>
<path d="M0 0 C4.40114397 0.50298788 6.71195019 2.08772731 10 5 C9.67 5.66 9.34 6.32 9 7 C7.4972763 6.02501855 5.99788037 5.04490611 4.5 4.0625 C3.6646875 3.51722656 2.829375 2.97195313 1.96875 2.41015625 C1.3190625 1.94480469 0.669375 1.47945312 0 1 C0 0.67 0 0.34 0 0 Z " fill="#091325" transform="translate(257,546)"/>
<path d="M0 0 C3.99455527 0.61454696 6.74466336 2.70646737 10 5 C9.01 5.66 8.02 6.32 7 7 C5.83040013 6.02433888 4.66438823 5.044375 3.5 4.0625 C2.8503125 3.51722656 2.200625 2.97195313 1.53125 2.41015625 C1.0259375 1.94480469 0.520625 1.47945313 0 1 C0 0.67 0 0.34 0 0 Z " fill="#0A1629" transform="translate(212,467)"/>
<path d="M0 0 C3.63 0 7.26 0 11 0 C11.33 0.66 11.66 1.32 12 2 C8.70303895 3.09898702 7.59505097 2.87124444 4.3125 2.0625 C3.50425781 1.86785156 2.69601562 1.67320312 1.86328125 1.47265625 C0.94095703 1.23869141 0.94095703 1.23869141 0 1 C0 0.67 0 0.34 0 0 Z " fill="#030A19" transform="translate(583,564)"/>
<path d="M0 0 C0 0.99 0 1.98 0 3 C-5.25714286 7 -5.25714286 7 -8 7 C-8 6.34 -8 5.68 -8 5 C-6.25 3.7109375 -6.25 3.7109375 -4 2.375 C-3.2575 1.92898438 -2.515 1.48296875 -1.75 1.0234375 C-1.1725 0.68570313 -0.595 0.34796875 0 0 Z " fill="#081325" transform="translate(569,542)"/>
<path d="M0 0 C2 3 2 3 1.625 5.6875 C1.41875 6.450625 1.2125 7.21375 1 8 C1.66 8.33 2.32 8.66 3 9 C1.35 8.67 -0.3 8.34 -2 8 C-1.125 2.25 -1.125 2.25 0 0 Z " fill="#122235" transform="translate(517,490)"/>
<path d="M0 0 C-7.28571429 3.57142857 -7.28571429 3.57142857 -12 2 C-7.72170329 -0.29194467 -4.74957752 -1.52664992 0 0 Z " fill="#0F1B2E" transform="translate(270,478)"/>
<path d="M0 0 C-1 3 -1 3 -3.1875 4.1875 C-6.25390311 5.07334979 -8.82438155 5.14770318 -12 5 C-12 4.67 -12 4.34 -12 4 C-10.35 4 -8.7 4 -7 4 C-7 3.34 -7 2.68 -7 2 C-2.25 0 -2.25 0 0 0 Z " fill="#142438" transform="translate(799,457)"/>
<path d="M0 0 C0 0.33 0 0.66 0 1 C-6.93 0.505 -6.93 0.505 -14 0 C-14 -0.33 -14 -0.66 -14 -1 C-8.65998179 -2.33500455 -5.16044765 -1.512545 0 0 Z " fill="#132032" transform="translate(266,377)"/>
<path d="M0 0 C2.97 1.65 5.94 3.3 9 5 C5 6 5 6 2.25 4.75 C1.5075 4.1725 0.765 3.595 0 3 C0 2.01 0 1.02 0 0 Z " fill="#0B1628" transform="translate(233,569)"/>
<path d="M0 0 C3.3 0.99 6.6 1.98 10 3 C10 3.33 10 3.66 10 4 C3.375 4.25 3.375 4.25 0 2 C0 1.34 0 0.68 0 0 Z " fill="#091224" transform="translate(518,496)"/>
<path d="M0 0 C1.485 0.99 1.485 0.99 3 2 C3.40843923 4.71203652 3.13336867 7.2437142 3 10 C1.5 8.9375 1.5 8.9375 0 7 C-0.1875 3.3125 -0.1875 3.3125 0 0 Z " fill="#0E213A" transform="translate(736,502)"/>
<path d="M0 0 C0.99 0.33 1.98 0.66 3 1 C4.1875 3.5625 4.1875 3.5625 5 6 C4.34 6.66 3.68 7.32 3 8 C2.87625 7.360625 2.7525 6.72125 2.625 6.0625 C2.315625 5.0415625 2.315625 5.0415625 2 4 C1.34 3.67 0.68 3.34 0 3 C0 2.01 0 1.02 0 0 Z " fill="#142237" transform="translate(292,643)"/>
<path d="M0 0 C-1 3 -1 3 -3 4 C-4.99960012 4.039992 -7.00047242 4.04346799 -9 4 C-6.43425105 1.43425105 -3.68548192 0 0 0 Z " fill="#09101F" transform="translate(562,563)"/>
<path d="M0 0 C1.45922693 0.11409593 2.91740598 0.24165544 4.375 0.375 C5.59316406 0.47941406 5.59316406 0.47941406 6.8359375 0.5859375 C9 1 9 1 11 3 C4.6 3.36923077 4.6 3.36923077 1.5625 1.5 C1.046875 1.005 0.53125 0.51 0 0 Z " fill="#050D1C" transform="translate(216,564)"/>
<path d="M0 0 C0.99 0.33 1.98 0.66 3 1 C3.95024979 4.69541586 3.95024979 7.30458414 3 11 C2.67 11 2.34 11 2 11 C1.34 7.37 0.68 3.74 0 0 Z " fill="#15273D" transform="translate(298,410)"/>
<path d="M0 0 C0 0.99 0 1.98 0 3 C-0.99 3.33 -1.98 3.66 -3 4 C-3.33 4.99 -3.66 5.98 -4 7 C-4.99 6.67 -5.98 6.34 -7 6 C-4.9859524 2.9789286 -3.36720387 1.39332574 0 0 Z " fill="#081325" transform="translate(185,364)"/>
<path d="M0 0 C0.66 0.33 1.32 0.66 2 1 C1.67 2.32 1.34 3.64 1 5 C-0.65 5 -2.3 5 -4 5 C-2.68 3.35 -1.36 1.7 0 0 Z " fill="#12263F" transform="translate(831,478)"/>
<path d="M0 0 C0.33 0 0.66 0 1 0 C1 4.95 1 9.9 1 15 C0.67 15 0.34 15 0 15 C0 10.05 0 5.1 0 0 Z " fill="#1C3653" transform="translate(776,525)"/>
<path d="M0 0 C0.33 0 0.66 0 1 0 C1 3.96 1 7.92 1 12 C0.67 12 0.34 12 0 12 C0 8.04 0 4.08 0 0 Z " fill="#1D3755" transform="translate(776,484)"/>
<path d="M0 0 C0.33 0 0.66 0 1 0 C1 3.3 1 6.6 1 10 C0.67 10 0.34 10 0 10 C0 6.7 0 3.4 0 0 Z " fill="#1C3653" transform="translate(776,542)"/>
<path d="M0 0 C0.33 0 0.66 0 1 0 C1 2.64 1 5.28 1 8 C0.67 8 0.34 8 0 8 C0 5.36 0 2.72 0 0 Z " fill="#1C3652" transform="translate(776,508)"/>
<path d="M0 0 C0.33 0 0.66 0 1 0 C1 2.31 1 4.62 1 7 C0.67 7 0.34 7 0 7 C0 4.69 0 2.38 0 0 Z " fill="#1C3652" transform="translate(776,497)"/>
<path d="M0 0 C1 4 1 4 1 4 Z " fill="#1B3652" transform="translate(776,517)"/>
<path d="M0 0 C0.99 0.495 0.99 0.495 2 1 C1.67 1.66 1.34 2.32 1 3 C0.67 2.01 0.34 1.02 0 0 Z " fill="#1D3754" transform="translate(880,498)"/>
<path d="M0 0 C3 1 3 1 3 1 Z " fill="#213A56" transform="translate(192,528)"/>
<path d="" fill="#213754" transform="translate(0,0)"/>
<path d="" fill="#1D3A57" transform="translate(0,0)"/>
<path d="" fill="#1F3753" transform="translate(0,0)"/>
<path d="M0 0 C2 1 2 1 2 1 Z " fill="#223A55" transform="translate(782,567)"/>
<path d="M0 0 C2 1 2 1 2 1 Z " fill="#223B57" transform="translate(757,567)"/>
<path d="M0 0 C2 1 2 1 2 1 Z " fill="#243953" transform="translate(697,567)"/>
<path d="M0 0 C2 1 2 1 2 1 Z " fill="#233852" transform="translate(389,567)"/>
<path d="" fill="#233953" transform="translate(0,0)"/>
<path d="" fill="#1F3755" transform="translate(0,0)"/>
<path d="" fill="#1F3654" transform="translate(0,0)"/>
<path d="M0 0 C2 1 2 1 2 1 Z " fill="#1F3653" transform="translate(448,536)"/>
<path d="M0 0 C2 1 2 1 2 1 Z " fill="#233D58" transform="translate(168,536)"/>
<path d="" fill="#1C3654" transform="translate(0,0)"/>
<path d="M0 0 C2 1 2 1 2 1 Z " fill="#203754" transform="translate(518,500)"/>
<path d="" fill="#223A57" transform="translate(0,0)"/>
<path d="M0 0 C2 1 2 1 2 1 Z " fill="#203654" transform="translate(854,492)"/>
<path d="M0 0 C2 1 2 1 2 1 Z " fill="#1E3755" transform="translate(710,492)"/>
<path d="" fill="#1D3653" transform="translate(0,0)"/>
<path d="" fill="#223B55" transform="translate(0,0)"/>
<path d="" fill="#233955" transform="translate(0,0)"/>
<path d="M0 0 C2 1 2 1 2 1 Z " fill="#274059" transform="translate(848,467)"/>
<path d="M0 0 C2 1 2 1 2 1 Z " fill="#27415B" transform="translate(566,467)"/>
<path d="" fill="#243B58" transform="translate(0,0)"/>
<path d="M0 0 C2 1 2 1 2 1 Z " fill="#253F59" transform="translate(790,432)"/>
<path d="" fill="#1D3856" transform="translate(0,0)"/>
<path d="M0 0 C2 1 2 1 2 1 Z " fill="#253E5A" transform="translate(208,344)"/>
<path d="M0 0 C2 1 2 1 2 1 Z " fill="#203A55" transform="translate(259,336)"/>
<path d="" fill="#4E4F4E" transform="translate(0,0)"/>
<path d="" fill="#273C54" transform="translate(0,0)"/>
<path d="" fill="#223B56" transform="translate(0,0)"/>
<path d="" fill="#233A55" transform="translate(0,0)"/>
<path d="" fill="#283E54" transform="translate(0,0)"/>
<path d="" fill="#293D55" transform="translate(0,0)"/>
<path d="" fill="#1D3755" transform="translate(0,0)"/>
<path d="" fill="#263D58" transform="translate(0,0)"/>
<path d="" fill="#2C3F57" transform="translate(0,0)"/>
<path d="" fill="#1E3654" transform="translate(0,0)"/>
<path d="" fill="#233952" transform="translate(0,0)"/>
<path d="" fill="#273C56" transform="translate(0,0)"/>
<path d="" fill="#1F3756" transform="translate(0,0)"/>
<path d="" fill="#1E354F" transform="translate(0,0)"/>
<path d="" fill="#293D53" transform="translate(0,0)"/>
<path d="" fill="#2B3D51" transform="translate(0,0)"/>
<path d="" fill="#1E3551" transform="translate(0,0)"/>
<path d="" fill="#233855" transform="translate(0,0)"/>
<path d="" fill="#283C57" transform="translate(0,0)"/>
<path d="" fill="#263D56" transform="translate(0,0)"/>
<path d="" fill="#1F3854" transform="translate(0,0)"/>
<path d="" fill="#1E3553" transform="translate(0,0)"/>
<path d="" fill="#273A56" transform="translate(0,0)"/>
<path d="" fill="#1D3552" transform="translate(0,0)"/>
<path d="" fill="#1D3553" transform="translate(0,0)"/>
<path d="" fill="#213954" transform="translate(0,0)"/>
<path d="" fill="#233B58" transform="translate(0,0)"/>
<path d="" fill="#263C57" transform="translate(0,0)"/>
<path d="" fill="#23364F" transform="translate(0,0)"/>
<path d="" fill="#253B59" transform="translate(0,0)"/>
<path d="" fill="#203751" transform="translate(0,0)"/>
<path d="" fill="#233B57" transform="translate(0,0)"/>
<path d="" fill="#233C58" transform="translate(0,0)"/>
<path d="" fill="#203A58" transform="translate(0,0)"/>
<path d="" fill="#233A57" transform="translate(0,0)"/>
<path d="" fill="#1F3654" transform="translate(0,0)"/>
<path d="" fill="#1D3653" transform="translate(0,0)"/>
<path d="" fill="#243B55" transform="translate(0,0)"/>
<path d="" fill="#223650" transform="translate(0,0)"/>
<path d="" fill="#203854" transform="translate(0,0)"/>
<path d="" fill="#223A56" transform="translate(0,0)"/>
<path d="" fill="#223B55" transform="translate(0,0)"/>
<path d="" fill="#223A56" transform="translate(0,0)"/>
<path d="" fill="#233C5A" transform="translate(0,0)"/>
<path d="" fill="#233B56" transform="translate(0,0)"/>
<path d="" fill="#213852" transform="translate(0,0)"/>
<path d="" fill="#233E58" transform="translate(0,0)"/>
<path d="" fill="#263D56" transform="translate(0,0)"/>
<path d="" fill="#203854" transform="translate(0,0)"/>
<path d="" fill="#213954" transform="translate(0,0)"/>
<path d="" fill="#203956" transform="translate(0,0)"/>
<path d="" fill="#22384F" transform="translate(0,0)"/>
<path d="" fill="#203856" transform="translate(0,0)"/>
<path d="" fill="#1C3753" transform="translate(0,0)"/>
<path d="" fill="#233B56" transform="translate(0,0)"/>
<path d="" fill="#203754" transform="translate(0,0)"/>
<path d="" fill="#1E3754" transform="translate(0,0)"/>
<path d="" fill="#1D3353" transform="translate(0,0)"/>
<path d="" fill="#1C3752" transform="translate(0,0)"/>
<path d="" fill="#203858" transform="translate(0,0)"/>
<path d="" fill="#1F3755" transform="translate(0,0)"/>
<path d="" fill="#1D3755" transform="translate(0,0)"/>
<path d="" fill="#243C54" transform="translate(0,0)"/>
<path d="" fill="#203852" transform="translate(0,0)"/>
<path d="" fill="#1B3452" transform="translate(0,0)"/>
<path d="" fill="#1D3752" transform="translate(0,0)"/>
<path d="" fill="#1E3653" transform="translate(0,0)"/>
<path d="" fill="#1D3451" transform="translate(0,0)"/>
<path d="" fill="#1E3755" transform="translate(0,0)"/>
<path d="" fill="#223854" transform="translate(0,0)"/>
<path d="" fill="#1D3854" transform="translate(0,0)"/>
<path d="" fill="#233C58" transform="translate(0,0)"/>
<path d="" fill="#1D3754" transform="translate(0,0)"/>
<path d="" fill="#1E3754" transform="translate(0,0)"/>
<path d="" fill="#203B56" transform="translate(0,0)"/>
<path d="" fill="#1C3552" transform="translate(0,0)"/>
<path d="" fill="#1D3853" transform="translate(0,0)"/>
<path d="" fill="#223D56" transform="translate(0,0)"/>
<path d="" fill="#1F3851" transform="translate(0,0)"/>
<path d="" fill="#1F3957" transform="translate(0,0)"/>
<path d="" fill="#1A3450" transform="translate(0,0)"/>
<path d="" fill="#1C3550" transform="translate(0,0)"/>
<path d="" fill="#1C324F" transform="translate(0,0)"/>
<path d="" fill="#1D3855" transform="translate(0,0)"/>
<path d="" fill="#1F3755" transform="translate(0,0)"/>
<path d="" fill="#1E3752" transform="translate(0,0)"/>
<path d="" fill="#203754" transform="translate(0,0)"/>
<path d="" fill="#223A58" transform="translate(0,0)"/>
<path d="" fill="#1B3451" transform="translate(0,0)"/>
<path d="" fill="#1F3756" transform="translate(0,0)"/>
<path d="" fill="#1E3755" transform="translate(0,0)"/>
<path d="" fill="#1C3756" transform="translate(0,0)"/>
<path d="" fill="#1B3856" transform="translate(0,0)"/>
<path d="" fill="#1F3654" transform="translate(0,0)"/>
<path d="" fill="#1D3856" transform="translate(0,0)"/>
<path d="" fill="#1E3553" transform="translate(0,0)"/>
<path d="" fill="#1E3653" transform="translate(0,0)"/>
<path d="" fill="#1D3652" transform="translate(0,0)"/>
<path d="" fill="#1E3954" transform="translate(0,0)"/>
<path d="" fill="#1E3753" transform="translate(0,0)"/>
<path d="" fill="#1E3854" transform="translate(0,0)"/>
<path d="" fill="#1D3856" transform="translate(0,0)"/>
<path d="" fill="#1E3858" transform="translate(0,0)"/>
<path d="" fill="#1B3454" transform="translate(0,0)"/>
<path d="" fill="#1C3956" transform="translate(0,0)"/>
<path d="" fill="#1E3854" transform="translate(0,0)"/>
<path d="" fill="#1D3653" transform="translate(0,0)"/>
<path d="" fill="#1C3653" transform="translate(0,0)"/>
<path d="" fill="#1F3958" transform="translate(0,0)"/>
<path d="" fill="#203755" transform="translate(0,0)"/>
<path d="" fill="#1D3554" transform="translate(0,0)"/>
<path d="" fill="#233B59" transform="translate(0,0)"/>
<path d="" fill="#213851" transform="translate(0,0)"/>
<path d="" fill="#1F3954" transform="translate(0,0)"/>
<path d="" fill="#243956" transform="translate(0,0)"/>
<path d="" fill="#233D55" transform="translate(0,0)"/>
<path d="" fill="#253E58" transform="translate(0,0)"/>
<path d="" fill="#233B56" transform="translate(0,0)"/>
<path d="" fill="#203A56" transform="translate(0,0)"/>
<path d="" fill="#233A57" transform="translate(0,0)"/>
<path d="" fill="#1F3B56" transform="translate(0,0)"/>
<path d="" fill="#213952" transform="translate(0,0)"/>
<path d="" fill="#273D56" transform="translate(0,0)"/>
<path d="" fill="#223A56" transform="translate(0,0)"/>
<path d="" fill="#1E3754" transform="translate(0,0)"/>
<path d="" fill="#1E3553" transform="translate(0,0)"/>
<path d="" fill="#1C3957" transform="translate(0,0)"/>
<path d="" fill="#233A54" transform="translate(0,0)"/>
<path d="" fill="#273E59" transform="translate(0,0)"/>
<path d="" fill="#283E56" transform="translate(0,0)"/>
<path d="" fill="#273C56" transform="translate(0,0)"/>
<path d="" fill="#28415B" transform="translate(0,0)"/>
<path d="" fill="#283E59" transform="translate(0,0)"/>
<path d="" fill="#223B57" transform="translate(0,0)"/>
<path d="" fill="#293F5D" transform="translate(0,0)"/>
<path d="" fill="#27405C" transform="translate(0,0)"/>
<path d="" fill="#283F59" transform="translate(0,0)"/>
<path d="" fill="#203954" transform="translate(0,0)"/>
<path d="" fill="#233C5B" transform="translate(0,0)"/>
<path d="" fill="#263C59" transform="translate(0,0)"/>
<path d="" fill="#1D3954" transform="translate(0,0)"/>
<path d="" fill="#273C57" transform="translate(0,0)"/>
<path d="" fill="#2A3F58" transform="translate(0,0)"/>
<path d="" fill="#1B3654" transform="translate(0,0)"/>
<path d="" fill="#263D58" transform="translate(0,0)"/>
<path d="" fill="#263B56" transform="translate(0,0)"/>
<path d="" fill="#1A3552" transform="translate(0,0)"/>
<path d="" fill="#283E58" transform="translate(0,0)"/>
<path d="" fill="#233855" transform="translate(0,0)"/>
<path d="" fill="#223A54" transform="translate(0,0)"/>
<path d="" fill="#1B3451" transform="translate(0,0)"/>
<path d="" fill="#253B57" transform="translate(0,0)"/>
<path d="" fill="#1F3653" transform="translate(0,0)"/>
<path d="" fill="#1E3956" transform="translate(0,0)"/>
<path d="" fill="#1F3455" transform="translate(0,0)"/>
<path d="" fill="#1C3855" transform="translate(0,0)"/>
<path d="" fill="#1E3653" transform="translate(0,0)"/>
<path d="" fill="#1F3858" transform="translate(0,0)"/>
<path d="" fill="#233D57" transform="translate(0,0)"/>
<path d="" fill="#1F3552" transform="translate(0,0)"/>
<path d="" fill="#1E3855" transform="translate(0,0)"/>
<path d="" fill="#233C57" transform="translate(0,0)"/>
<path d="" fill="#243B57" transform="translate(0,0)"/>
<path d="" fill="#273B56" transform="translate(0,0)"/>
<path d="" fill="#263D58" transform="translate(0,0)"/>
<path d="" fill="#273E57" transform="translate(0,0)"/>
<path d="" fill="#263E59" transform="translate(0,0)"/>
<path d="" fill="#233D59" transform="translate(0,0)"/>
</svg>
